<svg width="24" height="24" viewBox="0 0 24 24" fill="none" xmlns="http://www.w3.org/2000/svg">
<path d="M18.3954 12.6375L7.08911 19.5563C6.97487 19.6267 6.8438 19.6653 6.70959 19.6678C6.57538 19.6704 6.44294 19.6369 6.32609 19.5708C6.20925 19.5047 6.11228 19.4085 6.04531 19.2921C5.97834 19.1758 5.94383 19.0436 5.94536 18.9094L5.94536 5.09064C5.94383 4.95641 5.97834 4.82423 6.04531 4.70789C6.11228 4.59156 6.20925 4.49532 6.32609 4.42924C6.44294 4.36316 6.57538 4.32964 6.70959 4.3322C6.8438 4.33475 6.97487 4.37328 7.08911 4.44376L18.3954 11.3625C18.5039 11.4298 18.5935 11.5236 18.6556 11.6352C18.7177 11.7468 18.7503 11.8723 18.7503 12C18.7503 12.1277 18.7177 12.2533 18.6556 12.3648C18.5935 12.4764 18.5039 12.5703 18.3954 12.6375Z" stroke="#002D63" stroke-width="1.5" stroke-linecap="round" stroke-linejoin="round"/>
</svg>
