<svg xmlns="http://www.w3.org/2000/svg" viewBox="7.927 0 492.378 321.037" xmlns:v="https://vecta.io/nano"><style><![CDATA[.E{clip-path:url(#A)}]]></style><g transform="matrix(1.003529 0 0 .794625 18.066773 -65.793042)"><path d="M297.027 241.061l-10.104 3.727s-3.007 1.546-7.59 1.879L272.667 235l-7.399 6.401L276 248.667l-4.333 8.622-4.426 9.225s4.533-1.035 5.662.875c0 0 2.094 3.612 3.012 6.612 0 0 2.143-1.417 3.447 1l1.305 4.667s-5.667 3.063-8 3.531c0 0 1.916 2.302 1.666 6.177 0 0-.864 3.416 1.667 5.375 0 0 1.668 1.335 1.334 4.126l5.416-8.126s4.651 2.499 4.211 5.25c0 0-.724 4.334-1.551 5.625s-1.077 1.125-1.077 1.125 1.834-1.916 4.292-2c0 0 3.089-.25 4.19 0l.591 7s5.946.167 7.687 1.25l-1.132-11.5c-.128-1.417 7.063-.321 8.763 1.75 0 0 7.453 13.837 9.026 17.962l5.286-12.462.95.906 1.514-3.156s8.764-.667 10.882-5.042L331 294.25s-3.844-2.819-3.438-4.125c0 0 3.358-10.321 3.528-12.708 0 0 5.826-11.833 2.409-9.917 0 0-5-1.249-5.25.167 0 0-1.281-5.256-1.821-6.887-.076-.229-.138-.386-.179-.447l-9.326 1.313-.292-3.896-4.605 2.929s-7.81 1.405-8.668.071c0 0 6.643-4.416 8.976-12.083 0 0 9.583-9.5 10.333-11.667 0 0-4.362 1.001-8.015-1.667 0 0-8.652-2.599-8.652-2.799v-.201s-4.749 2.25-8.333 2.667l-.64 6.061z" fill="#f1f2f2"/><clipPath id="A"><path d="M-14.887 82.707h500v500h-500z"/></clipPath><radialGradient id="B" cx="422.33" cy="322.068" r="87.796" gradientUnits="userSpaceOnUse" gradientTransform="matrix(1, 0, 0, 1, -14.886491, 82.707319)"><stop offset="0" stop-color="#fff"/><stop offset="1" stop-color="#fff" stop-opacity="0"/></radialGradient><circle cx="407.443" cy="404.775" r="87.796" opacity=".7" fill="url(#B)" class="E"/><radialGradient id="C" cx="55.081" cy="-81.333" r="220" gradientUnits="userSpaceOnUse"><stop offset="0" stop-color="#fff"/><stop offset="1" stop-color="#fff" stop-opacity="0"/></radialGradient><circle cx="55.081" cy="-81.333" r="220" opacity=".6" fill="url(#C)" class="E"/><radialGradient id="D" cx="418.875" cy="-8.249" r="194" gradientUnits="userSpaceOnUse"><stop offset="0" stop-color="#fff"/><stop offset="1" stop-color="#fff" stop-opacity="0"/></radialGradient><circle cx="418.876" cy="-8.25" r="194" opacity=".5" fill="url(#D)" class="E"/><g fill="#fff" class="E"><path d="M223.167 286.833l-.153-.646-.171-.767c-.056-.301-.166-.642-.172-1.027l-.083-1.265c-.049-.459-.003-.943.035-1.455.055-.509.042-1.06.174-1.603l.347-1.693.517-1.645c.158-.534.398-1.016.585-1.489.377-.948.823-1.75 1.17-2.434l.904-1.575.347-.568-.872 2.315-.892 2.512-.484 1.488-.469 1.607-.369 1.627c-.151.522-.167 1.042-.259 1.529-.075.49-.165.956-.165 1.397l-.071 1.229c-.046.38.012.718.018 1.019l.038.774.025.67zm-14.5 4.167l.506-.754 1.424-2.029 5.059-6.392 1.447-1.805 1.317-1.701 1.162-1.561.97-1.394c.602-.849.981-1.602 1.303-2.09l.478-.774-.361.832c-.253.525-.544 1.334-1.063 2.246l-.852 1.493c-.295.546-.68 1.08-1.066 1.657l-1.257 1.778-1.432 1.845-5.382 6.129-2.253 2.52z"/><path d="M222.833 272.167l-.873.973-1.07 1.104-1.511 1.37c-1.151.982-2.612 2.048-4.313 3.103l-2.722 1.558-2.998 1.519c-4.161 1.96-7.967 3.58-10.621 4.979-.674.329-1.257.674-1.782.957a25.84 25.84 0 0 0-1.324.766l-1.12.673 1.048-.781c.337-.254.753-.56 1.257-.882s1.063-.719 1.716-1.096c2.569-1.591 6.327-3.419 10.464-5.367l2.989-1.474c.965-.476 1.869-.982 2.734-1.456 1.715-.974 3.211-1.936 4.412-2.826.623-.417 1.122-.874 1.593-1.238s.848-.714 1.154-.999l.967-.883zm72.5-31.5l.114-1.882.246-5.394.051-3.896-.07-4.646-.146-11.323-.081-6.585-.164-7.135-.343-15.74-.574-17.383-.386-9.191-.442-9.462-1.678-36.063-.275-8.112-.177-7.655.04-13.749.139-5.993.313-5.34.279-4.643.38-3.892.774-7.251-.427 7.277-.212 3.895-.091 4.642-.111 5.33.069 5.979c-.003 4.189.198 8.778.368 13.701.061 2.462.245 5.008.364 7.63l.443 8.088 2.024 36.052.418 9.479.316 9.209.322 17.418-.014 15.763-.037 7.143-.126 6.587-.263 11.326-.118 4.646c-.052 1.429-.155 2.736-.22 3.909-.102 2.351-.386 4.156-.499 5.387l-.206 1.874zM401.75 19.25l-1.545 1.822c-.989 1.211-2.349 3.08-3.893 5.614s-3.19 5.776-5.081 9.555l-1.487 2.934-1.69 3.056-3.702 6.625-4.083 7.285-4.305 7.957-4.609 8.52c-1.59 2.925-3.112 5.995-4.739 9.108l-4.961 9.582-4.956 10.104-2.549 5.19-1.292 2.626-1.223 2.679-4.96 10.912-1.257 2.754c-.413.918-.772 1.857-1.158 2.779l-2.267 5.514-4.416 10.79-8.051 20.547-7.18 18.624-3.11 8.48-2.619 7.922-4.515 13.634-1.871 5.587-1.733 4.645-3.248 8.654 2.92-8.769 1.571-4.691 1.69-5.641 4.124-13.755 2.426-8c.858-2.778 1.924-5.618 2.936-8.586 2.018-5.953 4.392-12.194 6.856-18.779l7.82-20.652c1.37-3.577 2.887-7.177 4.364-10.85l2.258-5.541 1.158-2.791 1.262-2.771 5.011-10.962 1.242-2.688 1.309-2.625 2.592-5.185 5.064-10.078 5.1-9.538 4.897-9.047 4.781-8.443 4.486-7.869 4.263-7.181 3.882-6.523 1.778-3.003 1.564-2.869c2.007-3.719 3.771-6.92 5.411-9.414s3.076-4.316 4.115-5.491l1.62-1.757zm-59 198.5l-2.529 3.394-2.954 3.507-3.907 4.001c-2.873 2.717-5.68 4.96-7.712 6.575-2.05 1.602-3.397 2.523-3.397 2.523s.952-1.313 2.622-3.322c1.658-2.026 4.082-4.675 6.957-7.394 1.42-1.366 2.82-2.618 4.125-3.728l3.471-2.941c2-1.655 3.324-2.615 3.324-2.615zM508 141.5l-1.832 1.455c-1.175.994-3.035 2.282-5.434 3.947l-4.087 2.621-4.925 3.002-11.96 7.393-14.519 8.923-16.815 9.982-38.532 22.827-2.559 1.51-2.502 1.562-4.958 3.088-9.702 6.023-18.408 11.313-16.745 10.136-14.63 8.747L311.25 261l28.567-17.924 14.406-9.09 16.53-10.422 18.285-11.533 9.685-6.096 4.958-3.111 2.506-1.569 2.56-1.513 20.012-11.754 18.723-10.789 16.992-9.672 14.723-8.568 12.166-7.04 5.02-2.839 4.164-2.471 5.564-3.73L508 141.5zm-80 91.25l-4.327 1.181-5.034 1.506-6.607 2.176-17.142 5.944-10.249 3.192-5.457 1.576-5.667 1.409-21.637 5.148c-6.659 1.546-12.678 2.76-17.733 3.827L317.75 262l16.138-4.374 17.56-4.572 21.502-5.474 5.659-1.38 5.446-1.499c3.582-.946 6.996-2.006 10.273-2.936l17.37-5.213c2.502-.667 4.74-1.345 6.75-1.793 2.005-.463 3.714-.92 5.142-1.165l4.41-.844zM505.75 317l-1.655-.772-4.752-2.18-3.512-1.389-2.011-.779-2.211-.741c-3.035-1.072-6.561-2.087-10.471-3.143-3.922-1.026-8.242-2.049-12.903-3.089l-14.89-3.33-8.039-1.791-8.404-1.792-17.737-3.537-9.011-1.81-8.734-1.852-16.459-3.844c-5.23-1.391-10.093-3.004-14.629-4.513l-12.623-4.117c-3.877-1.184-7.41-2.167-10.555-2.852-1.565-.385-3.042-.623-4.396-.893-1.357-.241-2.607-.395-3.728-.57-2.254-.241-4.011-.412-5.206-.428L332 273.5l1.825-.017c1.2-.045 2.965.039 5.24.178l3.772.405c1.369.212 2.87.39 4.457.713 3.193.561 6.786 1.416 10.722 2.472s8.207 2.346 12.777 3.736c4.572 1.384 9.447 2.873 14.632 4.144 5.204 1.217 10.743 2.32 16.438 3.58 2.845.644 5.768 1.195 8.73 1.778l9.005 1.784 17.741 3.635c2.87.564 5.667 1.243 8.406 1.905l8.037 1.936 14.807 3.677c4.637 1.168 8.946 2.331 12.852 3.498 3.896 1.197 7.399 2.351 10.409 3.553l2.189.835c.699.276 1.352.594 1.987.87l3.459 1.549c2.051.988 3.588 1.868 4.653 2.412l1.612.857zM487 392l-1.301-1.418-1.572-1.72-2.296-2.199-1.373-1.301-1.587-1.355-3.643-3.018c-2.651-2.118-5.756-4.425-9.27-6.853l-5.566-3.739-2.991-1.943-3.145-1.955c-4.265-2.656-8.901-5.365-13.822-8.14s-10.157-5.561-15.622-8.371l-8.393-4.171-8.73-4.147-8.742-4.218-8.357-4.367c-1.377-.7-2.712-1.453-4.027-2.208l-3.917-2.227c-2.588-1.463-5.119-2.898-7.521-4.415l-7.064-4.35-6.534-4.302c-4.242-2.735-8.032-5.52-11.54-7.986l-2.559-1.818-2.381-1.793-4.355-3.286c-2.736-2.028-5.017-3.874-6.887-5.374l-5.804-4.66 6.014 4.384 7.094 5.082 4.466 3.118 2.436 1.705 2.611 1.729c3.579 2.347 7.436 5.008 11.733 7.623l6.608 4.127 7.12 4.185c2.416 1.465 4.958 2.852 7.554 4.271l3.925 2.162c1.317.735 2.652 1.469 4.029 2.152l8.342 4.279c2.839 1.418 5.771 2.757 8.707 4.173l8.743 4.18 8.408 4.259c5.466 2.879 10.684 5.759 15.579 8.634s9.488 5.705 13.704 8.485l3.107 2.049 2.95 2.039c1.939 1.317 3.749 2.654 5.477 3.93 3.453 2.554 6.489 4.984 9.072 7.215 1.32 1.079 2.465 2.185 3.538 3.176l1.535 1.426 1.323 1.366 2.201 2.308 1.495 1.797L487 392zm-62.333 72.334l-.629-1.124-.778-1.432-1.035-2.068.005.011-6.343-11.479-4.478-8.17-5.313-9.505-5.97-10.713c-2.094-3.749-4.44-7.579-6.774-11.602l-3.587-6.124c-1.233-2.062-2.389-4.216-3.761-6.272l-8.156-12.809c-3.399-5.496-6.993-10.732-10.337-15.854l-9.617-14.778-4.506-6.856-4.292-6.436-4.07-5.967c-1.302-1.917-2.632-3.696-3.857-5.43l-3.539-4.914-3.275-4.295-2.847-3.743-2.502-3.059-4.674-5.715 4.939 5.49 2.636 2.956 2.998 3.632 3.442 4.182c1.202 1.493 2.412 3.119 3.715 4.802l4.037 5.325 4.246 5.867c1.483 2.018 2.934 4.159 4.458 6.345l4.653 6.775 9.83 14.644c3.395 5.087 6.998 10.274 10.424 15.811l8.142 12.901c1.363 2.078 2.5 4.249 3.713 6.332l3.514 6.19 6.574 11.755 5.712 10.872 5.027 9.67 4.188 8.325 5.855 11.738.001.002.004.009.94 2.093c.26.6.526 1.075.712 1.465l.575 1.153zm-98.429-33l.411-4.623.509-5.42.598-7.178.35-4.17.221-4.523.242-4.841.009-5.134-.018-5.393-.165-5.637c-.039-3.833-.369-7.779-.587-11.83-.081-2.028-.344-4.018-.501-5.988l-.542-5.812-.69-5.592c-.225-1.828-.414-3.622-.716-5.355l-.79-5.081-.373-2.437-.444-2.345-1.674-8.551-1.596-7.017c-.483-2.064-1.014-3.81-1.385-5.257l-1.193-4.485 1.526 4.384c.471 1.418 1.12 3.135 1.73 5.171l1.999 6.943c.738 2.575 1.337 5.447 2.083 8.51l.543 2.342.466 2.436.962 5.089c.355 1.737.594 3.538.863 5.374l.806 5.623c.242 1.914.409 3.871.617 5.853.175 1.985.447 3.992.529 6.038.221 4.084.518 8.073.496 11.927l.056 5.672-.124 5.45c-.063 1.774-.046 3.505-.18 5.18l-.432 4.869-.424 4.539-.559 4.163-1.006 7.148-.862 5.377-.755 4.581zM305 401l-.029-4.034-.027-4.724-.173-6.261-.324-16.291-.217-9.61-.289-10.312-.368-10.31-.436-9.599-.518-8.681-.572-7.558-.522-6.235-.475-4.703-.384-4.017.728 3.967.829 4.663.931 6.203.98 7.543.876 8.686.69 9.623c.233 3.338.318 6.801.466 10.346.156 3.543.141 7.005.194 10.348s-.006 6.566-.035 9.638c-.045 6.143-.297 11.663-.441 16.306l-.236 6.263c-.096 1.844-.239 3.432-.329 4.727L305 401zm-31.666 18.667l.938-4.395 1.123-5.141 1.286-6.85 1.532-8.312.855-4.634.994-4.908 1.076-5.153 1.287-5.332 2.805-11.16 2.748-11.155 2.3-10.433.931-4.883a107.24 107.24 0 0 0 .767-4.625l.34-2.204.262-2.131.441-4.014.302-3.66.158-3.273.056-5.254-.201-4.483.548 4.464.302 5.275.043 3.303-.096 3.703-.238 4.069-.162 2.165-.244 2.237-.588 4.696-.771 4.958c-.56 3.388-1.278 6.917-2.07 10.563-.797 3.646-1.699 7.398-2.667 11.227l-2.898 11.142-1.388 5.283-1.207 5.089-1.153 4.844-1.038 4.594-1.935 8.236-1.689 6.777-1.473 5.068-1.276 4.307zm13-119l-7.838 23.629-4.048 11.915-4.801 13.605-5.371 15.007-2.919 7.931-3.124 8.138-3.367 8.033-3.403 7.732-6.529 14.552-5.732 13.224-2.456 6.05-2.21 5.604-3.534 9.74-2.349 7.464-1.987 6.378 1.652-6.473 2.012-7.583 3.158-9.903c.552-1.849 1.311-3.719 2.023-5.697l2.279-6.147c1.613-4.232 3.494-8.69 5.42-13.403l6.3-14.658 3.332-7.742 3.327-8.004c1.143-2.693 2.086-5.419 3.124-8.068l2.975-7.876 5.613-14.936 5.14-13.493 4.428-11.763 8.885-23.256zm-2-11l-2.439 4.643-2.994 5.384-4.26 6.961-5.444 8.251-6.412 9.341-7.193 10.256c-2.525 3.534-5.058 7.253-7.87 10.906l-8.132 10.724-3.892 5.079-3.886 4.75-7.221 8.749c-2.264 2.737-4.368 5.29-6.428 7.505l-13.164 14.452 12.311-15.167c1.949-2.3 3.941-4.936 6.1-7.75l6.926-8.951 3.764-4.824 3.796-5.135 8.036-10.756c2.805-3.644 5.362-7.338 7.932-10.83l7.388-10.093 6.701-9.132 5.765-7.996 4.586-6.713c1.399-1.95 2.394-3.754 3.289-5.183l2.741-4.471zm-11-6l-9.818 4.074-5.261 2.174-6.186 2.76-15.06 6.769-8.748 3.969-9.553 4.178c-6.569 2.995-13.763 5.656-21.14 8.955-7.403 3.223-15.092 6.793-23.007 10.622l-24.433 12.034-24.523 11.941-22.805 11.114c-3.65 1.735-7.131 3.594-10.553 5.316l-9.934 5.059-17.789 9.172L29.333 400l9.287-5.174 25.383-14.005 17.606-9.538 9.856-5.23 10.489-5.473 22.732-11.359 24.454-12.015 24.503-11.961c7.959-3.783 15.713-7.288 23.185-10.427 7.436-3.211 14.72-5.776 21.3-8.636l9.604-3.981 8.83-3.777 15.231-6.396 6.264-2.589 5.33-2.021 9.947-3.751zm4.333-9.333l-12.799 3.931-13.941 4.077-8.301 2.172-8.939 2.228-4.549 1.079-4.448.922-8.421 1.684-7.634 1.438-6.7.993-13.268 1.811 13.066-2.905 6.607-1.392 7.543-1.783 8.342-1.925 4.419-.987 4.532-1.101 8.94-2.13 8.345-1.923 14.127-3.334 13.079-2.855z"/><path d="M272.334 267s-4.101.82-10.776 1.863c-6.675 1.037-15.935 2.281-26.226 2.988-10.296.715-19.653.728-26.41.479-3.379-.12-6.11-.287-7.995-.426l-2.926-.237 10.914-.45 26.264-1.587 37.155-2.63zM269 260.334l-1.778-.285-5.101-.796-18.803-2.738-6.204-1.066-6.709-1.258-14.786-2.875-33.688-7.38-17.416-3.973-16.192-3.768-7.55-1.68-7.135-1.513c-4.621-.874-8.915-1.777-12.875-2.337l-5.638-.899-5.056-.587-4.404-.507c-1.353-.17-2.599-.173-3.716-.259L95 228l6.967.065c1.122.034 2.375-.02 3.736.091l4.434.321 5.099.389 5.688.697c4 .426 8.331 1.194 12.997 1.944 2.335.369 4.722.876 7.196 1.333l7.607 1.52 16.265 3.525 17.428 3.877 33.601 7.717c5.156 1.215 10.089 2.193 14.686 3.219l6.659 1.453c2.136.471 4.183.936 6.158 1.27l18.659 3.489c2.204.402 3.902.812 5.059 1.045l1.761.379zm6.667-11.001l-1.692-1.206c-1.121-.772-2.839-1.813-5.111-3.045l-8.242-4.636-4.782-3.489-5.257-3.98-2.825-2.143-3.042-2.115-6.446-4.489-7.092-4.516-3.716-2.346-3.93-2.221-4.026-2.28-2.047-1.161-2.121-1.079-8.716-4.393-9.229-4.141-4.773-1.997-4.867-1.955-4.883-1.924-4.873-1.767-9.543-3.444-18.079-6.485c-5.757-2.062-11.25-3.941-16.423-5.594-5.169-1.669-10.03-3.069-14.501-4.224l-3.275-.833-3.127-.714c-2.024-.484-3.953-.84-5.754-1.194-1.797-.38-3.489-.608-5.04-.874-1.55-.274-2.977-.441-4.26-.604-2.562-.36-4.566-.51-5.923-.633l-2.071-.188 2.077.092c1.362.061 3.375.125 5.954.382 1.292.11 2.73.222 4.293.438 1.564.206 3.273.374 5.089.69 1.819.291 3.771.583 5.818 1.002l3.166.616 3.316.735c4.526 1.025 9.453 2.299 14.684 3.85 5.235 1.536 10.79 3.308 16.593 5.275l18.164 6.247 9.594 3.388 4.905 1.758c1.651.575 3.267 1.286 4.917 1.931l4.9 1.974c1.622.655 3.242 1.286 4.801 2.03l9.275 4.239 8.742 4.53 2.123 1.117 2.048 1.201 4.021 2.364 3.919 2.309 3.697 2.437 7.035 4.703 6.363 4.677 2.994 2.208 2.772 2.234 5.146 4.156c1.631 1.319 3.134 2.556 4.612 3.613 2.995 2.085 5.798 3.583 8.019 4.916 2.228 1.328 3.907 2.447 4.995 3.271l1.634 1.287zM272 235.667l-6.229-7.852-7.221-9.285-9.408-12.406-5.487-7.192-5.998-7.749-13.591-16.812-7.434-9.068-7.58-9.608c-2.603-3.24-5.083-6.676-7.678-10.098-2.611-3.411-5.112-6.986-7.664-10.588-5.106-7.206-9.808-14.445-14.196-21.518-4.373-7.085-8.409-14.019-12.179-20.65l-1.42-2.456-1.46-2.332c-.924-1.573-2.005-3.017-3.046-4.457-2.087-2.877-4.363-5.489-6.644-7.944-4.596-4.887-9.383-8.989-13.734-12.772-4.366-3.77-8.283-7.265-11.508-10.552-1.647-1.609-3.051-3.234-4.368-4.7-1.29-1.491-2.371-2.937-3.391-4.19l-2.459-3.528c-.712-1.02-1.198-1.961-1.649-2.68l-1.323-2.228 1.444 2.151c.489.693 1.02 1.601 1.781 2.58l2.616 3.382c1.075 1.197 2.212 2.576 3.556 3.994 1.372 1.393 2.828 2.936 4.528 4.46 3.331 3.117 7.344 6.42 11.844 10.029 4.484 3.624 9.452 7.599 14.3 12.462 2.406 2.444 4.82 5.068 7.051 7.986 1.112 1.461 2.264 2.928 3.263 4.54l1.57 2.391c.514.804.98 1.618 1.477 2.434l12.46 20.384c4.44 6.982 9.147 14.136 14.22 21.294l7.586 10.545 7.557 10.113 7.422 9.674 7.249 9.18c4.748 5.939 9.094 11.8 13.214 17.198 2.089 2.685 3.932 5.396 5.774 7.954l5.245 7.389 8.912 12.766c2.591 3.783 4.914 6.967 6.785 9.595l5.813 8.164zm-15.833 44l-.165.625c-.123.398-.245 1-.52 1.697l-.459 1.139c-.156.416-.384.828-.608 1.271l-.751 1.364-.892 1.411-1.934 2.566-1.701 1.988-1.637 1.772 1.308-2.027 3.275-4.768.904-1.364c.309-.432.552-.878.814-1.287l.712-1.182.588-1.053c.365-.643.581-1.201.777-1.57l.289-.582zm14 5.333l-.75 1.297c-.232.426-.566.912-.952 1.48-.373.578-.835 1.209-1.368 1.891-.513.698-1.132 1.415-1.79 2.191l-2.194 2.396-5.442 5.068c-4.036 3.402-7.968 6.125-10.881 7.973-1.452.933-2.655 1.643-3.489 2.127l-1.3.743 1.23-.852 3.324-2.362c2.789-2.016 6.573-4.889 10.577-8.264 1.99-1.7 3.85-3.36 5.484-4.931l2.27-2.281c.688-.736 1.341-1.413 1.889-2.073.57-.642 1.068-1.236 1.479-1.781.423-.536.794-.994 1.057-1.397l.856-1.225z"/><path d="M274.167 304.334l-.61-.591c-.38-.39-.968-.918-1.694-1.556l-1.235-.98-1.489-1.007c-.525-.351-1.124-.632-1.734-.928l-.957-.392-1.014-.307c-.697-.156-1.383-.278-2.057-.302-.336-.047-.666.002-.99.006l-.481.018-.466.075c-.621.069-1.192.237-1.732.391s-1.012.384-1.466.545l-1.164.584c-.349.167-.614.368-.852.503l-.726.44.65-.547c.216-.167.458-.408.786-.619l1.115-.733 1.463-.711c.55-.208 1.142-.431 1.802-.546l.495-.108.518-.047c.35-.021.707-.085 1.071-.049.733.002 1.482.12 2.237.291l1.092.341 1.012.443c.64.334 1.256.664 1.782 1.061.549.367 1.023.772 1.463 1.153.445.374.809.779 1.162 1.12l1.506 1.772.513.68zm6.833 9.833l.234-.708c.083-.224.168-.503.243-.834l.252-1.116a12.8 12.8 0 0 0 .206-1.364c.075-.489.08-1.022.124-1.575l-.006-1.744-.117-1.869-.24-1.862-.304-1.727-.712-2.896-.604-1.931-.242-.706.361.654a19.86 19.86 0 0 1 .878 1.844c.35.792.684 1.769 1.003 2.871l.406 1.755c.127.612.205 1.257.284 1.917l.085 1.939c.015.627-.05 1.232-.09 1.807l-.264 1.616c-.099.503-.225.963-.365 1.376-.116.418-.274.78-.406 1.099-.123.32-.252.587-.372.798l-.354.656zm12.167-1.333l-.897 1.196-1.06 1.396-1.375 1.863-1.604 2.305-1.805 2.67-4.097 6.152-2.18 3.157-2.114 2.886-1.993 2.552-1.823 2.154c-.541.672-1.109 1.212-1.588 1.701l-1.238 1.247-1.059 1.054.965-1.144 1.136-1.333 1.464-1.792 1.693-2.237c.628-.787 1.221-1.691 1.875-2.617l2.027-2.925 2.144-3.169 4.21-6.088 1.921-2.603 1.734-2.223c.518-.689 1.054-1.26 1.502-1.776l1.165-1.314.997-1.112zm-7.333 50.5l-2.628-2.135c-1.612-1.322-3.8-3.209-6.476-4.826l-2.021-1.028c-.659-.323-1.34-.501-1.979-.697-.652-.135-1.274-.279-1.872-.282-.597-.079-1.148.009-1.658.041-.515.018-.951.197-1.355.267s-.726.233-.999.332l-.847.328.793-.446c.261-.136.563-.346.969-.465.4-.119.839-.354 1.369-.428.525-.088 1.104-.23 1.74-.2.638-.045 1.306.059 2.014.166.688.167 1.429.33 2.132.647.727.267 1.424.655 2.138 1.047l1.958 1.322c.62.443 1.167.931 1.702 1.376l2.673 2.538 2.347 2.443z"/><path d="M288.834 348.334l-2.244 1.294-1.153.63c-.409.243-.885.409-1.372.62l-3.218 1.255-3.338.882-1.474.307-1.298.191-2.57.321 2.483-.729 1.255-.339c.454-.104.927-.268 1.425-.433l3.26-.994 3.216-1.116 1.405-.489 1.203-.485 2.42-.915zm-9.667 25.5l-2.866-.941-1.431-.5c-.506-.202-1.069-.349-1.663-.499l-3.823-1.078-3.883-.847-1.701-.353-1.497-.243-2.969-.539 3.018.125 1.528.093c.553.017 1.131.121 1.741.224l3.965.73 3.843 1.22c.589.19 1.145.382 1.638.632l1.389.648 2.711 1.328zm3.667 3l-.878-.489c-.278-.161-.613-.363-1.051-.503-.432-.146-.889-.392-1.455-.492-.554-.136-1.151-.3-1.821-.361-.658-.113-1.375-.146-2.127-.187-1.509-.051-3.171-.006-4.938.046l-2.589.006c-.84-.006-1.653-.085-2.426-.163-.386-.041-.76-.13-1.124-.191s-.715-.135-1.045-.253l-.96-.303-.84-.4c-.548-.227-.968-.566-1.344-.843l-.516-.392-.372-.398-.683-.742.77.646.406.344c.158.113.35.208.543.325.393.229.82.512 1.367.682l.828.311.938.218a5.94 5.94 0 0 0 1.014.174l1.087.123 2.365.065 2.56-.041 5.003.085 2.18.328c.683.113 1.294.333 1.85.524.567.155 1.022.458 1.441.651.426.189.745.434 1.006.631l.811.599zm50.333-61l-.747.487c-.236.162-.547.323-.855.588l-1.063.859c-.354.363-.797.697-1.166 1.163l-.603.687-.569.783c-.205.259-.375.554-.555.851l-.529.917c-.346.632-.649 1.314-.951 2.02l-.766 2.111-.611 2.014-.904 3.474-.847 3.214.439-3.295.63-3.562.532-2.081c.2-.72.469-1.449.756-2.191.314-.733.643-1.44 1.025-2.091.171-.336.391-.638.591-.941l.627-.86.647-.779.683-.668c.42-.45.914-.758 1.312-1.09.414-.313.835-.533 1.18-.755.342-.229.679-.352.936-.482l.808-.373zm-9.667 75.167l-.029-.985-.246-2.821-.347-4.469-.341-5.927-.689-15.427-.257-4.451a112.62 112.62 0 0 0-.334-4.636l-1.029-9.711-.843-4.871c-.114-.806-.316-1.588-.513-2.364l-.571-2.313-.566-2.271-.692-2.19-1.379-4.228-3.048-7.645-1.511-3.414-1.51-3.098-2.716-5.269-2.158-3.924-1.887-3.32 1.999 3.255 2.277 3.861 2.856 5.207 1.584 3.073 1.586 3.395c1.134 2.333 2.114 4.925 3.188 7.637.54 1.354.945 2.797 1.44 4.242l.72 2.201.589 2.286.592 2.33.529 2.385.86 4.919.999 9.763.294 4.654.204 4.465.402 15.441.189 5.929.214 4.474.151 2.827-.007.99zm49-108l-1.337.536a12.79 12.79 0 0 1-1.599.559l-2.17.585-2.68.501c-.969.163-2.011.255-3.107.358l-3.443.195-3.69.098-3.676.104-3.409.203-3.059.388c-.96.13-1.833.342-2.633.535-.81.158-1.503.436-2.131.623a11.92 11.92 0 0 0-1.573.59l-1.327.558 1.272-.676c.409-.223.913-.49 1.534-.718.617-.235 1.303-.566 2.11-.778l2.641-.694c.957-.232 1.997-.366 3.091-.526l3.443-.301 3.698-.142 3.685-.061 3.421-.1 3.082-.223c.967-.072 1.855-.217 2.67-.344.82-.098 1.537-.302 2.181-.431.646-.122 1.186-.288 1.626-.428l1.38-.411zm-23.5-7.667l.039-.758.055-.881c.01-.343.082-.728.037-1.16l-.059-1.404c.007-.503-.082-1.036-.159-1.597-.096-.559-.107-1.153-.266-1.751l-.39-1.864-.503-1.843c-.142-.602-.363-1.16-.522-1.707l-.963-2.88-.935-2.655.365.663.955 1.83 1.241 2.807.622 1.709.551 1.879.365 1.928c.14.619.122 1.242.18 1.82.041.582.084 1.133.029 1.652l-.095 1.435c-.009.44-.133.826-.192 1.168l-.189.872-.166.737zm-10-16.833l-.302-.417-.348-.499c-.128-.199-.302-.413-.433-.681-.271-.529-.651-1.146-.916-1.894l-.428-1.169-.354-1.288-.388-2.54c-.084-.785-.082-1.496-.087-2.09l.089-1.922.326 1.888.369 2.027.504 2.452.308 1.254c.091.407.228.785.325 1.157.184.749.458 1.384.629 1.947.081.284.206.518.289.735l.227.558.19.482zm-23.833-11l.035.574.03.678c.002.264.041.57 0 .901l-.095 1.091c-.022.396-.106.809-.202 1.242-.103.431-.169.898-.329 1.355l-.488 1.416-.632 1.356c-.195.442-.462.828-.686 1.209l-.691 1.048-.662.868c-.406.528-.802.902-1.048 1.179l-.398.415.296-.495.808-1.335.523-.935c.201-.326.363-.705.559-1.088l.583-1.213.577-1.321.502-1.35c.177-.433.269-.873.406-1.279l.324-1.174.241-1.04c.092-.317.104-.613.151-.87l.102-.664.094-.568zm61.666-26.833l-.491-.025-1.403-.059-2.232.014-2.946-.052c-1.091-.017-2.284-.078-3.565.005l-4.085.147-4.487.451-1.177.118-1.182.215-2.414.436c-1.646.23-3.192.713-4.706 1.101l-2.224.589-2.078.742-1.98.7-.95.334-.891.398-3.253 1.455c-1.013.412-1.863.914-2.629 1.321l-1.961 1.052-1.679.892 1.612-1.003 1.899-1.171 2.569-1.462 3.211-1.605.885-.434.947-.37 1.979-.768 2.086-.801 2.24-.637c1.527-.416 3.095-.917 4.761-1.151l2.448-.432 1.199-.206 1.192-.105 4.543-.36 4.12-.015c1.29-.034 2.488.079 3.581.148l2.948.205 2.22.119 1.404.153.489.061zm4.167-2.5l-1.72-.356-2.022-.378-2.689-.427-3.27-.404-3.765-.32-4.167-.127c-1.446-.035-2.939.037-4.47.09l-4.444.428c-1.438.153-2.793.458-4.097.703l-1.872.485-1.746.527-1.61.564c-.513.189-.978.435-1.438.634l-1.299.604-1.102.646-.963.562c-.287.186-.526.388-.755.553l-1.406 1.051 1.326-1.154.724-.608.933-.627 1.078-.719 1.281-.681 1.43-.716 1.61-.645c.552-.24 1.142-.428 1.756-.604l1.891-.555 4.148-.81c1.446-.251 2.962-.343 4.51-.47l4.527-.056c1.464.001 2.868.145 4.208.224l3.782.456 3.268.559 2.672.579 1.999.51 1.692.482z"/></g><g class="E" fill="#3d3d50"><path d="M297.448 235.683c3.388-.078 6.703-.338 9.518-2.48.718-.547-.494-2.097-1.264-1.738-2.363 1.102-5.096 2.84-7.816 2.852-.573.002-1.063 1.381-.438 1.366h0z"/><path d="M305.659 233.002c1.958.567 3.787 1.662 5.723 2.333 1.263.438 2.681 1.003 4.023.803.796-.119-.097-1.417-.478-1.558-1.395-.514-2.895-.633-4.32-1.069-1.171-.358-3.335-.827-4.174-1.768-.525-.589-1.376 1.084-.774 1.259h0z"/><path d="M315.323 236.342c2.556 1.708 6.253 3.35 8.957.835.566-.527-.358-1.977-1.072-1.753-2.271.712-5.133 1.798-7.104-.354-.467-.511-1.372.877-.781 1.272h0z"/><path d="M343.334 218s-3.762 4.83-9.137 10.065c-5.512 5.096-10.53 8.602-10.53 8.602s3.896-4.738 9.382-9.811c5.35-5.212 10.285-8.856 10.285-8.856z"/><path d="M307.334 261.334l-1.477.017h-.83l-1.256-.026-1.626-.05c-.02-.007-.116.008-.075-.016l.066-.055.134-.111.282-.232.618-.505 1.463-1.177c.156-.118.241-.201.315-.278l.25-.247.515-.504c.725-.658 1.368-1.47 2.032-2.314l.911-1.376.82-1.526 1.552-3.407.404-.886.129-.282c.035-.07.06-.144.103-.21l.198-.167.41-.343 1.378-1.167 1.284-1.206 1.193-1.218 4.117-4.317 1.646-1.619 1.297-1.168 1.146-.943-.961 1.127c-.318.351-.676.812-1.093 1.341l-1.404 1.809-3.703 4.714-1.146 1.323-1.283 1.32c-.43.453-.947.851-1.433 1.285l-.314.271c.027-.018.03-.05-.055.148l-.395.875-1.653 3.453c-.28.56-.647 1.081-.959 1.603-.331.515-.733.972-1.085 1.438-.781.867-1.552 1.676-2.373 2.288l-.59.472-.287.228-.228.167-.684.408-.383.234-.2.123-.102.063c-.035.022-.081.047-.04.045l.531.116.622.118.747.121 1.472.243z"/><path d="M314 260.333s-.533.286-1.438.625a17.57 17.57 0 0 1-3.627.935c-.361.045-.72.03-1.063.03l-.994-.045-1.679-.203c-.953-.162-1.532-.342-1.532-.342s.582-.237 1.509-.492l1.62-.367.954-.142 1.026-.1c1.396-.199 2.688-.172 3.647-.097l1.577.198z"/><path d="M554.667 115.666l-35.539 21.58-17.988 10.855-20.714 12.34-47.61 28.023-47.578 28.091-20.727 12.317-17.94 10.927L311 261.333l35.133-22.242 17.786-11.192c6.363-4.075 13.32-8.167 20.596-12.55l47.457-28.322 86.73-50.497 35.965-20.864z"/><path d="M395.954 28.597l-5.969 10.06c-2.31 3.932-5.066 8.338-7.778 13.399l-9.049 16.458-2.452 4.529-1.241 2.327-1.185 2.401-4.863 9.973-5.088 10.49-2.651 5.406-2.552 5.583-10.866 23.154-10.156 23.472-2.395 5.654-2.164 5.621-4.164 10.893-3.914 10.381-.938 2.508-.847 2.498-1.633 4.884-5.917 17.826c-1.879 5.424-3.238 10.442-4.56 14.806l-.577 1.936c.105-.054.216-.073.323-.054l.57-1.782c1.421-4.331 2.907-9.305 4.927-14.678l6.347-17.658 1.729-4.843.891-2.479.976-2.49 4.012-10.327 4.166-10.873 2.139-5.621 2.361-5.659 9.66-23.648 10.463-23.317 2.571-5.571 2.719-5.37 5.308-10.373 9.905-19.123 8.754-16.6c2.6-5.119 5.246-9.585 7.466-13.566l5.765-10.175L401 20l-5.046 8.597z"/><path d="M296.667 212l1.128 6.852.316 3.497.289 4.027.021 4.46-.148 4.786-.4 4.773-.064.706-.046.542-.023.269c-.032.07-.164.061-.241.094l-1.499.387-2.055.573-3.797 1.224-3.337 1.08-2.801.772-2.154.425-1.855.202 1.799-.457 2.06-.676 2.672-1.051 3.216-1.362 3.755-1.493 2.096-.696.548-.162.107-.035.009-.008c.007 0-.001-.034-.001-.046l-.002-.012.009-.142.018-.286.324-4.722c.164-1.614.15-3.197.218-4.724l.169-4.406-.022-3.992-.009-3.486-.3-6.913z"/><path d="M293.333 55.333l-.106 7.146-.145 8.377c-.064 1.632.032 3.379.063 5.23l.136 5.863.142 6.448.33 6.986.376 7.481.47 7.927 1.148 17.019 1.243 18.281 1.008 18.311.364 8.716.15 8.364c.037 5.448.206 10.62-.074 15.469l-.28 7.009-.428 6.446-.68 11.079-.262 4.545-.038 3.824-.083 7.145-.177-7.145-.089-3.834.121-4.556.375-11.103.271-6.45.129-6.985c.183-4.822-.078-9.986-.192-15.416-.092-2.715-.086-5.498-.257-8.338l-.445-8.695c-.256-5.907-.686-12.019-1.078-18.281l-1.172-18.282-.96-17.045-.345-7.946-.236-7.499-.18-7.002.014-6.464.02-5.873c.022-1.854-.024-3.603.089-5.236l.411-8.379.367-7.137z"/><path d="M245 198.667l1.709 1.842 4.594 5.081c1.92 2.165 4.18 4.765 6.605 7.726 1.232 1.464 2.481 3.038 3.755 4.688s2.614 3.34 3.884 5.151c1.276 1.807 2.574 3.534 3.706 5.289l3.266 5.054 2.733 4.712c.417.744.845 1.447 1.207 2.151l1.021 2.036 1.736 3.504.143.3.063.135.032.068c.021.001.045-.005.067-.007l.621-.087 1.339-.199c.811-.069 1.445-.067 1.87-.09L284 246l-.645.093c-.421.068-1.044.131-1.832.276l-1.3.32-.888.209c-.041.008-.087.023-.127.026l-.065-.11-.134-.227-.262-.443-1.997-3.342-1.149-1.946c-.404-.673-.872-1.347-1.328-2.061l-2.938-4.536-3.398-4.912c-1.159-1.715-2.472-3.417-3.738-5.211s-2.572-3.499-3.805-5.165l-3.59-4.784-6.144-8.067-5.66-7.453z"/><path d="M114.333 31.333l1.381 2.225c.875 1.477 2.319 3.562 4.285 6.159 2.001 2.572 4.593 5.607 7.869 8.872 3.284 3.256 7.232 6.741 11.733 10.435l14.761 12.115c2.594 2.268 5.259 4.629 7.862 7.251l1.964 1.983 1.818 2.19 1.839 2.227c.621.745 1.123 1.576 1.694 2.369 4.54 6.38 8.154 13.739 11.823 21.265l2.804 5.674 1.431 2.86 1.531 2.821c.524.937.994 1.913 1.563 2.832l1.731 2.757c.592.915 1.13 1.869 1.769 2.765l1.894 2.714c5.1 7.254 10.759 13.867 16.054 20.383 5.349 6.479 10.049 13.128 14.666 19.278l6.67 9.066 6.4 8.478 11.34 15.339 9.334 12.68 6.879 9.699 5.905 8.23-6.033-8.138-7.157-9.485-9.755-12.355-11.735-15.049-6.403-8.491-6.454-9.256c-4.424-6.34-8.849-13.089-14.213-19.542-5.29-6.504-11.133-12.947-16.6-20.024l-2.029-2.658c-.683-.878-1.273-1.822-1.911-2.728l-1.869-2.736c-.613-.914-1.126-1.884-1.689-2.819l-1.641-2.823-1.512-2.851c-1.013-1.892-1.97-3.783-2.902-5.663-3.743-7.509-7.35-14.712-11.717-20.943-.55-.773-1.033-1.595-1.625-2.317l-1.746-2.169-1.718-2.147c-.618-.673-1.259-1.32-1.88-1.975-2.488-2.619-5.065-5.04-7.559-7.367-5.039-4.612-9.926-8.732-14.286-12.619-4.37-3.876-8.203-7.53-11.387-10.909a103.69 103.69 0 0 1-7.631-9.128c-1.909-2.646-3.322-4.751-4.183-6.238l-1.365-2.237z"/><path d="M269.667 260l.366-.43c.24-.285.623-.69 1.002-1.314.832-1.197 1.794-3.124 2.92-5.648l.924-1.986.53-1.057.29-.54.121-.224c.017-.035.044-.072.051-.104l-.103-.066-4.562-2.943-11.067-7.474-28.625-19.645c-5.446-3.589-11.275-7.181-17.509-10.549-6.235-3.377-12.873-6.475-19.925-9.139l-20.632-7.729c-6.693-2.414-13.195-4.616-19.422-6.603l-17.701-5.557-8.059-2.39-7.476-2.057-6.838-1.707-6.14-1.355-5.38-.995c-1.655-.304-3.184-.463-4.552-.667-2.734-.43-4.882-.522-6.333-.652l-2.214-.171 2.215.157c1.451.118 3.602.184 6.344.562 1.372.178 2.908.305 4.57.571l5.413.862 6.186 1.193c2.188.432 4.478.995 6.896 1.529 2.414.552 4.918 1.229 7.541 1.885l8.118 2.257a362.72 362.72 0 0 1 17.672 5.753l19.321 6.935 20.782 7.322c1.788.593 3.553 1.242 5.302 1.914l2.619.99 2.55 1.1 2.531 1.098c.833.38 1.647.792 2.466 1.185 1.634.795 3.261 1.573 4.822 2.441 6.309 3.352 12.199 6.939 17.649 10.575 10.909 7.27 20.244 14.467 28.224 20.301l10.836 7.785 4.564 3.108.158.108c-.011.052-.057.111-.083.166l-.176.318-.3.529c-.204.345-.377.698-.55 1.04-.351.681-.663 1.34-.961 1.965-1.172 2.503-2.156 4.423-2.999 5.613-.384.621-.77 1.025-1.011 1.31l-.365.43z"/><path d="M269.667 260.333s.058-.042-.039-.287c-.065-.23-.277-.6-.201-.678.054-.054.109-.004.253.021s.292.056.395.055c.115-.003.196-.038.225-.065s.034-.045.034-.045-.008.016.013.049c.015.033.075.086.165.191.093.113.181.255.239.407.06.145.056.349-.011.416-.142.184-.556.043-.782-.033-.253-.087-.291-.031-.291-.031z"/><path d="M267.667 265s.452-.911.964-2.49c.53-1.57 1.174-3.785 2.286-6.04 1.102-2.26 2.458-4.13 3.373-5.513.935-1.374 1.377-2.29 1.377-2.29s-.453.912-.967 2.494c-.532 1.573-1.176 3.787-2.283 6.038-1.097 2.255-2.453 4.123-3.37 5.509-.938 1.375-1.38 2.292-1.38 2.292z"/><path d="M266 268l.237-.408c.171-.263.369-.683.618-1.239.489-1.118.988-2.848 1.672-5.059l.283-.847.14-.403c-.072-.045-.246-.046-.405-.076l-1.999-.288-4.537-.645c-3.263-.424-6.954-1.054-11.04-1.725-4.095-.627-8.541-1.523-13.334-2.389l-7.4-1.482-7.83-1.645-16.757-3.778-17.926-4.295-17.914-4.33-16.715-3.879-7.813-1.674-3.744-.798-3.642-.699-6.912-1.328-6.404-1.07c-4.075-.722-7.787-1.198-11.046-1.63l-4.542-.601-3.833-.375-7.158-.672 7.162.624 3.84.319 4.554.515c3.269.365 6.996.752 11.092 1.366l6.439.896 6.956 1.138 3.667.602 3.77.7 7.866 1.485 16.811 3.577 17.958 4.212 17.895 4.414 16.668 4.08 7.778 1.833 7.348 1.679 13.248 2.75 10.987 1.989 4.522.73 1.995.319.236.038c.077.023.217.01.242.064l-.167.471c-.103.287-.207.565-.293.841-.711 2.201-1.222 3.929-1.715 5.046-.252.556-.45.975-.622 1.237L266 268z"/><path d="M266.667 267.667s.233-.447.377-1.282l.269-1.448a7.41 7.41 0 0 1 .512-1.66c.215-.564.508-1.065.816-1.515l.432-.645.353-.578c.448-.713.574-1.206.574-1.206s-.146.477-.137 1.332c-.015.422.022.955-.069 1.505-.075.556-.205 1.159-.434 1.757-.518 1.158-1.345 2.031-1.905 2.659-.576.625-.788 1.081-.788 1.081z"/><path d="M267.333 267s-3.947.369-10.307 1.208l-11.183 1.386-13.734 1.317c-4.888.289-9.551.467-13.792.59-2.12.059-4.134.133-6.023.1l-5.25-.023c-6.417-.037-10.378.09-10.378.09s3.965-.117 10.363-.549l5.23-.347c1.88-.101 3.885-.313 5.995-.495l13.738-1.029c4.87-.391 9.517-.667 13.748-.879l11.243-.62 10.35-.749z"/><path d="M272.667 266s-1.718.182-4.471.719c-2.755.515-6.54 1.325-10.764 1.778-4.239.465-8.134.489-10.923.577-2.795.067-4.509.259-4.509.259s1.719-.181 4.474-.716c2.761-.514 6.533-1.321 10.765-1.776 4.243-.469 8.123-.492 10.917-.581 2.796-.068 4.511-.26 4.511-.26z"/><path d="M274.753 271.935l.435.708.354.646a4.12 4.12 0 0 1 .323.82l.101-.037-.001-.255c0-.181.04-.397.023-.626-.013-.461.028-1.042-.077-1.661-.051-.309-.083-.647-.199-.967-.104-.324-.232-.654-.385-.982a8.52 8.52 0 0 0-.573-.882c-.19-.281-.442-.504-.661-.727-.44-.444-.916-.764-1.278-1.051-.174-.15-.362-.255-.505-.366l-.361-.289c-.19-.164-.281-.268-.281-.268s.402.394.8 1.217l.305.675c.12.231.201.508.313.775.1.275.244.535.35.827a7.43 7.43 0 0 0 .41.85c.134.292.284.566.448.826.174.258.294.525.459.767z"/><path d="M278.055 273.201l-5.751 1.226-9.083 2.069-9.999 2.436-10.688 2.781-10.661 2.866-9.93 2.658-9.002 2.344-7.876 1.919-6.538 1.409-4.959.968-4.234.789 4.242-.741 4.986-.829 6.597-1.146 7.967-1.561 9.11-1.962 10.024-2.355 10.704-2.748 10.652-2.9 9.909-2.736 8.975-2.452 6.021-1.575c-.169-.141-.324-.294-.466-.46z"/><path d="M274.333 271.667s-.014-.466-.291-1.161l-.288-.535c-.104-.186-.195-.39-.343-.564a5.38 5.38 0 0 1-.373-.559c-.155-.159-.288-.326-.401-.516-.135-.169-.288-.304-.402-.487s-.303-.284-.441-.454-.31-.3-.486-.403l-.496-.33c-.672-.303-1.145-.324-1.145-.324a2.11 2.11 0 0 0 .319.002c.206-.003.509-.058.905-.126l.661-.008c.246-.001.52-.007.789.096.269.092.594.149.852.342s.543.396.755.663a5.97 5.97 0 0 1 .476.865c.077.301.126.595.158.869.057.271-.009.536-.018.771l-.067.646c-.199.772-.164 1.213-.164 1.213z"/><path d="M275 274s.007-.282-.241-.731c-.219-.45-.629-1.056-.634-1.734-.083-.648.246-1.287.402-1.77.185-.483.14-.765.14-.765s.021.276.31.695c.262.419.736 1.027.813 1.755.021.706-.37 1.354-.573 1.811-.234.46-.217.739-.217.739z"/><path d="M275.31 274.044c.164-.044.335-.076.492-.102.066-.464.11-.951.073-1.461-.005-.907-.228-1.746-.432-2.451-.009-.004-.019-.004-.027-.009-.095-.024-.185-.07-.253-.158l-.392-.494c-.206.813-.58 1.93-.562 3.159.034.589.158 1.14.305 1.647l.796-.131z"/><path d="M274.502 274.448l.372-.087.022-.045c.212-.422.612-1.006.605-1.649.005-.645-.396-1.228-.607-1.65-.239-.423-.228-.684-.228-.684s.012.261-.228.684c-.211.422-.611 1.006-.606 1.65-.007.643.394 1.228.605 1.649.029.049.043.087.065.132z"/><path d="M274.272 274.585a.42.42 0 0 1 .211-.133l.038-.009.089-.169c.241-.445.683-1.026.719-1.691.054-.716-.303-1.385-.483-1.844-.209-.463-.179-.739-.179-.739s-.007.283-.276.726c-.241.445-.682 1.027-.72 1.691-.057.716.301 1.385.482 1.844.056.122.093.229.119.324z"/><path d="M272.492 234.259l-4.601 3.739c-1.206 1.049-2.279 2.125-3.229 3.128a.44.44 0 0 1 .253.101.43.43 0 0 1 .336.028l.316.158a.5.5 0 0 1 .189.167c.057.036.097.084.132.135l3.104-2.467c1.518-1.393 2.811-2.83 3.904-4.089l-.404-.9z"/><path d="M280 279.334s.002-.138-.03-.387c-.024-.249-.103-.608-.246-1.04a13.35 13.35 0 0 0-.564-1.45l-.359-.765-.385-.701c-.077-.09-.137-.194-.202-.287-.077-.07-.134-.171-.211-.241a2.23 2.23 0 0 0-.528-.382l-.33-.142-.357-.087c-.238-.048-.479-.063-.7-.082-.442.002-.813.038-1.049.115l-.371.114s.13-.045.354-.158l.964-.516c.22-.083.457-.22.742-.295.284-.082.608-.161.98-.151a2.56 2.56 0 0 1 1.169.314c.193.101.355.251.531.394.152.155.281.33.414.508a3.61 3.61 0 0 1 .44 1.101c.072.358.111.703.102 1.024-.009.644-.101 1.197-.183 1.656l-.164 1.069c-.024.251-.017.389-.017.389z"/><path d="M270.334 283.667s.231-.029.644-.118l.744-.183.947-.369c.351-.127.714-.337 1.107-.528l1.228-.667 1.338-.753 1.451-.777 1.494-.725.367-.164.258-.105c.049.007.062-.004.042-.041l-.006-.027-.018-.161-.038-.36-.068-.69-.12-1.241c-.138-1.519-.369-2.422-.369-2.422s.221.906.813 2.311l.479 1.15.264.643.137.336c.023.066.044.092.068.194l.074.326.15.683c.04.071-.043.088-.084.123l-.146.097-.3.196-.763.507-1.47.854-1.563.696-1.529.492-1.424.314-1.252.186-1.028.11-.774.044-.653.069z"/><path d="M28.667 399.667l9.511-5.411 11.123-6.415 14.772-8.427 18.043-9.972c6.461-3.635 13.515-7.234 20.928-11.039l11.406-5.805 5.9-2.979 6.075-2.918 25.409-11.929 25.604-11.514 6.112-2.838 6.026-2.714 11.648-5.302 21.662-9.519 19.095-7.77c5.827-2.399 11.172-4.387 15.844-6.185l11.983-4.611 10.191-3.986-10.141 4.113-11.87 4.893-15.664 6.609-18.92 8.157-21.749 9.281-11.773 5.004-6.065 2.621-6.122 2.811-25.354 12.021-25.091 12.534-6.049 2.954-5.88 3.003-11.399 5.788-21.09 10.676-18.313 9.435c-5.627 2.833-10.606 5.603-15.009 7.982l-11.268 6.15-9.575 5.302z"/><path d="M273.75 291s.058-.105.122-.316c.056-.212.159-.518.121-.921l-.065-.629c.005-.212-.131-.448-.17-.667a3.96 3.96 0 0 0-.201-.663c-.087-.22-.088-.445-.182-.674-.075-.23-.086-.468-.128-.704-.059-.233-.094-.473-.117-.718-.015-.247-.088-.473-.132-.698l-.146-.639c-.137-.371-.278-.667-.4-.849l-.202-.272a1.81 1.81 0 0 0 .246.23c.166.143.442.317.822.525l.569.409c.191.165.461.303.641.534a6.63 6.63 0 0 1 .579.734c.172.277.276.612.377.947.119.331.084.697.074 1.028-.002.335-.088.651-.211.939-.116.286-.206.554-.372.771l-.421.59c-.107.18-.267.308-.371.433a3.52 3.52 0 0 0-.257.319c-.128.182-.176.291-.176.291z"/><path d="M276.5 296s-.069-.094-.23-.236c-.079-.071-.183-.155-.313-.246-.123-.097-.305-.177-.46-.307-.317-.252-.775-.52-1.152-.943-.189-.21-.409-.428-.554-.699-.153-.267-.29-.559-.395-.867a5.25 5.25 0 0 1-.132-.945c-.02-.307.047-.609.094-.888.089-.56.336-1.032.467-1.415.061-.192.172-.357.225-.505.062-.146.103-.272.133-.376.06-.205.068-.322.068-.322s-.083.478.165 1.234l.233.598c.065.21.187.425.293.644.115.217.184.445.292.669a3.28 3.28 0 0 1 .243.7 3.33 3.33 0 0 1 .173.72c.025.247.095.476.113.722.03.239.039.488.097.701l.123.63c.192.772.517 1.131.517 1.131z"/><path d="M277 300.75s.04-.113.069-.332c.041-.214.037-.543-.019-.945-.013-.198-.083-.42-.116-.645s-.13-.461-.173-.696c-.081-.231-.123-.472-.198-.694l-.164-.664-.126-.62-.15-.601c-.068-.193-.131-.415-.244-.589-.104-.183-.215-.366-.347-.506-.251-.298-.52-.498-.718-.582-.197-.097-.314-.126-.314-.126s.113.039.332.068l.408.049c.159.027.362.016.572.069.215.038.466.076.721.18.259.089.543.223.809.414a3.05 3.05 0 0 1 .731.745 3.16 3.16 0 0 1 .439 1.014c.074.36.101.72.057 1.049-.022.336-.126.635-.216.917a7.99 7.99 0 0 1-.722 1.352l-.503.83c-.098.197-.128.313-.128.313z"/><path d="M204.75 398l2.983-4.19 3.455-4.949 4.59-6.548 5.662-7.866c2.021-2.842 4.247-5.823 6.587-8.964l15.433-20.264 8.069-10.419c2.66-3.327 5.073-6.643 7.466-9.738 2.362-3.116 4.684-6.026 6.669-8.881l5.65-7.86c1.771-2.377 3.179-4.653 4.459-6.626l3.248-5.085 2.729-4.36-2.676 4.393-3.093 5.184c-1.204 2.022-2.517 4.365-4.17 6.823l-5.263 8.148c-1.849 2.963-4.028 5.982-6.266 9.203-2.267 3.198-4.574 6.615-7.156 10.008l-7.955 10.539-15.883 19.916-6.99 8.641-6.042 7.568c-1.869 2.299-3.451 4.458-4.87 6.334l-3.604 4.84L204.75 398z"/><path d="M287 294.5s-.142-.182-.434-.48-.734-.726-1.337-1.16a8.11 8.11 0 0 0-1.003-.628l-.573-.266-.455-.146c-.04.008-.067.013-.078.035a.25.25 0 0 0-.001.054l.002.02c.003.004.012-.002-.037.079-.276.477-.582.933-.919 1.395-.672.915-1.397 1.708-2.084 2.414l-1.81 1.9c-.466.573-.849 1.061-1.008 1.443l-.264.591s.089-.212.206-.614c.06-.201.116-.457.228-.734l.322-.983 1.011-2.506c.435-.914.976-1.876 1.651-2.793l1.036-1.285.908-1.056c.03-.071.091-.029.146-.005l.165.072.324.142.622.276c.434.251.572.418.779.587.19.178.354.37.514.546a9.34 9.34 0 0 1 .755 1.056l.537.881.409.646.388.519z"/><path d="M285.25 301.25s.09-.139.213-.411c.138-.264.262-.689.366-1.216a9.75 9.75 0 0 0 .146-1.817l-.029-.979-.092-.959c-.006-.162-.039-.314-.063-.469-.013-.156-.042-.308-.077-.457-.044-.308-.139-.602-.222-.901-.103-.291-.197-.593-.342-.852-.122-.275-.285-.511-.425-.738-.306-.432-.607-.762-.85-.932-.233-.187-.377-.269-.377-.269s.137.091.409.216l.506.226c.192.099.442.174.692.306.24.143.557.252.83.465.293.189.603.418.891.715.28.297.568.646.764 1.065a2.9 2.9 0 0 1 .265.656 3.12 3.12 0 0 1 .15.713c.067.488.021.965-.063 1.403-.097.438-.239.838-.424 1.19-.157.362-.399.657-.573.945l-.582.732-.85.989c-.183.235-.263.379-.263.379z"/><path d="M226.25 460.75l1.586-6.693.831-3.592 1.132-4.236c.842-3.031 1.68-6.522 2.889-10.297l1.808-5.954c.623-2.074 1.387-4.19 2.115-6.406 1.44-4.438 3.166-9.109 4.976-14.031.889-2.468 1.908-4.953 2.895-7.514l3.122-7.795 6.868-16.258 13.742-31.165 5.791-13.679 2.55-6.232 2.21-5.805c1.449-3.685 2.592-7.077 3.604-10.056l1.412-4.15 1.049-3.532 1.921-6.604-1.86 6.622-.98 3.555-1.305 4.187c-.929 3.008-1.96 6.442-3.277 10.181l-1.998 5.894-2.319 6.334c-1.564 4.395-3.436 9.01-5.324 13.901l-6.268 15.201-6.957 16.213-7.004 16.171-3.282 7.707-3.098 7.409-5.445 13.811-2.349 6.307-2.022 5.871c-1.343 3.725-2.294 7.177-3.221 10.183l-1.24 4.203-.901 3.573-1.651 6.676z"/><path d="M292.25 301.25s-.102-.012-.289.013c-.186.017-.461.092-.79.217l-.526.206-.605.274a3.89 3.89 0 0 1-1.366.317c-.489.033-.963-.058-1.403-.195l-1.181-.396c-.34-.111-.615-.174-.801-.184-.188-.018-.289-.002-.289-.002s.102-.005.28-.06c.18-.048.434-.166.749-.345.627-.354 1.513-.918 2.539-.984.516-.021 1.016.097 1.461.252s.846.347 1.175.522c.328.167.584.275.765.315.179.049.281.05.281.05z"/><path d="M292 311.75s.102-.229.245-.661l.228-.791.131-1.086c.062-.394.024-.846.031-1.311.015-.465-.038-.965-.077-1.482-.016-.514-.103-1.051-.149-1.602-.028-.552-.15-1.111-.179-1.692l-.208-1.676-.03-.2-.015-.136c.007-.013.014-.028.02-.049.016-.045-.021-.047-.054-.077.022-.011-.127-.025-.251-.044l-.363-.054c-.239-.042-.479-.047-.712-.071-.467-.049-.907-.041-1.313-.051-.807.02-1.468.094-1.9.226-.442.106-.646.27-.652.256.006.013.211-.138.632-.315.413-.199 1.029-.439 1.809-.752l1.311-.435.759-.193.408-.08c.137-.02.257-.069.536-.041l.747.039c.245.027.586-.054.593.283l.431 1.244c.205.595.306 1.229.409 1.88.037.653.104 1.294.031 1.91-.057.615-.112 1.205-.264 1.756-.13.552-.258 1.068-.451 1.536-.182.469-.313.905-.518 1.28l-.478 1.016-.403.734-.304.639z"/><path d="M274.5 415.75l.756-4.553.889-5.345 1.246-7.071c.946-5.237 2.166-11.455 3.739-18.303l2.565-10.714 2.949-11.452c.998-3.927 1.967-7.769 2.639-11.528.346-1.878.696-3.722.949-5.542l.694-5.344 1.128-9.881c.301-3.096.712-5.975.83-8.619l.265-3.772c.058-1.192.038-2.318.059-3.371.022-2.107.066-3.928-.093-5.405l-.365-4.6s.153 1.635.502 4.589c.226 1.476.284 3.294.396 5.407.047 1.057.14 2.188.161 3.388l-.024 3.803c.039 2.672-.193 5.584-.411 8.714-.086 1.569-.353 3.17-.567 4.825-.251 1.65-.459 3.357-.817 5.083l-2.095 10.841-1.055 5.741-1.035 5.924c-.707 3.998-1.433 7.897-2.288 11.625l-2.506 10.737c-1.668 6.822-3.4 12.908-4.707 18.056l-1.737 6.955c-.498 2.052-.902 3.824-1.184 5.283l-.883 4.529z"/><path d="M290.5 342s.228-2.163.292-5.693c.088-3.527.11-8.408.56-13.73l.354-3.883.389-3.612c.115-1.152.281-2.249.361-3.276l.239-2.864.095-1.254.017-1.117-.005-1.792c-.017-.984-.052-1.527-.052-1.527a36.69 36.69 0 0 0 .113 1.523l.19 1.786c.095.696.181 1.491.237 2.373l.244 2.889c.093 1.041.105 2.15.152 3.323.037 1.171.068 2.403.019 3.674-.038 1.271-.086 2.589-.193 3.933-.232 2.683-.578 5.227-.986 7.523-.39 2.302-.815 4.36-1.139 6.096-.67 3.463-.887 5.628-.887 5.628z"/><path d="M300.25 309s-.349-.261-1.054-.35l-1.207-.014c-.218.015-.432.016-.642-.005-.216.001-.43-.003-.641-.049-.211-.061-.418-.072-.62-.145l-.6-.203c-.196-.056-.399-.159-.59-.205l-.548-.116c-.175-.033-.337-.059-.47-.04a2.2 2.2 0 0 0-.347.045c-.189.037-.283.081-.283.081s.098-.034.259-.138c.169-.082.374-.319.686-.521.306-.228.698-.505 1.192-.694.246-.115.514-.183.795-.21s.581-.066.87.006c.292.059.574.137.828.254a5.27 5.27 0 0 1 .68.449c.212.14.369.354.525.517l.407.473c.119.144.205.3.296.408a2.71 2.71 0 0 0 .236.267c.139.136.228.19.228.19z"/><path d="M305 387s-.065-4.921-.486-12.865l-.336-6.495-.497-7.446c-.379-5.242-.736-11.005-.984-17.059-.391-6.05-.639-11.82-.814-17.075l-.275-7.46-.313-6.498c-.371-7.949-.795-12.852-.795-12.852s.411 4.9 1.391 12.802l.792 6.464c.308 2.323.538 4.813.791 7.433l1.387 17.071c.253 6.068.366 11.857.419 17.12l-.019 7.474-.147 6.511L305 387z"/><path d="M304.75 341.75l-1.163-6.348-.679-3.201-.688-3.689-1.183-8.502c-.579-6.053-.565-11.582-.696-15.567C300.25 300.452 300 298 300 298s.238 2.45.935 6.385c.688 3.938 1.69 9.369 2.261 15.417.32 3.015.501 5.899.614 8.532l.174 3.736.196 3.253c.233 3.984.57 6.427.57 6.427z"/><path d="M307.5 297.75s-.705-.102-1.802.087l-1.904.53c-.735.206-1.487.396-2.39.422l-.327.007.001-.017c-.001-.009-.014-.036-.026-.038-.035.019-.032-.113-.194.372l-.343.977-.25.875c-.041.269-.119.524-.117.743-.006.22-.022.416.009.567a3.84 3.84 0 0 0 .094.475s-.038-.167-.153-.461c-.065-.146-.102-.334-.184-.551s-.152-.469-.24-.754l-.228-.947-.168-1.107c-.054-.236-.039-1.182.134-1.906.032-.079 0-.232.086-.254l.293-.027.602-.053.926-.067c.797-.023 1.659.025 2.395.15.379.058.749.169 1.083.24l.926.228 1.304.42a3.69 3.69 0 0 0 .473.089z"/><path d="M312.75 307l-.313-.497-.796-1.332-1.169-1.882-.706-1.046-.769-1.073-.817-.993a9.38 9.38 0 0 0-.823-.848c-.274-.262-.559-.475-.834-.679-.283-.178-.554-.37-.825-.491-.534-.273-1.031-.432-1.383-.52l-.565-.14.557-.199c.366-.114.931-.233 1.651-.193.363.003.752.091 1.173.191.411.125.848.287 1.268.527.424.232.851.521 1.233.868.4.338.749.74 1.091 1.163.313.437.604.875.825 1.324.246.438.402.891.571 1.312.291.86.457 1.653.546 2.323.082.673.108 1.217.099 1.597l-.014.588z"/><path d="M314.75 314.5l-.199-.579-.207-.668c-.08-.258-.144-.552-.274-.865l-.356-1.022c-.101-.368-.283-.742-.433-1.142l-.486-1.236-.538-1.314-.564-1.308-.552-1.222c-.314-.808-.71-1.486-.959-2.119-.128-.315-.284-.576-.396-.825l-.295-.638-.24-.563.5.346.572.428c.215.175.482.359.728.605.485.497 1.131 1.058 1.658 1.826l.827 1.212.715 1.41c.21.499.359 1.013.51 1.5.165.484.219.983.292 1.447.062.467.137.903.118 1.326l-.025 1.158c-.001.351-.071.67-.117.946l-.139.705-.14.592z"/><path d="M326.75 420.75l.09-4.397c.031-2.831.028-6.932-.075-11.994l-.189-8.275-.217-9.487-.535-21.725c-.17-3.853-.349-7.622-.82-11.23-.361-3.623-1.088-7.064-1.685-10.349l-1.031-4.767-.454-2.29-.506-2.203-.896-4.198c-.309-1.341-.663-2.613-.966-3.839l-.904-3.488-.962-3.067-.844-2.671c-.283-.813-.593-1.536-.848-2.195l-1.658-4.073s.611 1.44 1.785 4.021c.285.648.636 1.357.967 2.153l1.014 2.618 1.174 3.012c.396 1.074.741 2.233 1.143 3.439l1.204 3.806 1.085 4.188.538 2.217.425 2.315.794 4.845 1.243 10.454 1.386 11.217c.415 3.849.823 7.615.963 11.265.213 3.646.26 7.168.322 10.522l-.181 9.521-.412 8.285-.731 11.98-.219 4.39z"/><path d="M319.75 322.5s-2.451-3.345-4.219-7.903C313.592 310.104 313 306 313 306s2.573 3.225 4.538 7.774c1.791 4.622 2.212 8.726 2.212 8.726z"/><path d="M323.25 304s-.107.905-.417 2.264l-.593 2.355a26.4 26.4 0 0 1-.905 2.812c-1.438 3.938-3.585 6.819-3.585 6.819s.096-3.584 1.553-7.574a27.52 27.52 0 0 1 1.239-2.736c.408-.825.897-1.533 1.301-2.116L323.25 304z"/><path d="M421.5 457.5l-3.726-6.114-10.235-16.634-14.888-24.841-8.551-14.799-9.067-15.953c-3.13-5.452-6.229-10.756-9.427-15.747-3.128-5.038-6.428-9.714-9.521-14.194l-8.942-12.608-4.034-5.728-3.813-5.219c-2.387-3.358-4.708-6.272-6.697-8.873l-2.8-3.603-2.445-2.955-4.604-5.482 4.709 5.395 2.544 2.874 2.939 3.494c2.095 2.519 4.548 5.337 7.071 8.603l4.012 5.088c1.379 1.781 2.755 3.679 4.195 5.632 2.913 3.885 5.76 8.224 8.756 12.783l9.155 14.46 9.918 15.467 9.665 15.623 8.611 14.778 14.022 25.337 5.389 9.732 4.148 7.305 3.616 6.179z"/><path d="M347 334.75s-1.266-1.792-3.567-4.507l-4.026-4.772-2.326-2.843-2.421-3.099-2.366-3.133-2.176-2.943-1.978-2.666-1.781-2.288c-.535-.712-1.081-1.297-1.55-1.822l-1.228-1.328-1.08-1.099 1.123 1.054 1.358 1.197 1.808 1.587 2.151 1.978c.791.699 1.564 1.51 2.392 2.355l2.522 2.72 2.525 3.07 2.314 3.223 2.009 3.101 3.219 5.362L347 334.75z"/><path d="M336.75 296.75l-.076.165c-.055.105-.103.279-.215.477l-.389.742c-.154.293-.36.607-.592.962a11.35 11.35 0 0 1-1.983 2.256c-.434.375-.923.74-1.474 1.046a6.15 6.15 0 0 1-.863.432c-.298.137-.61.252-.938.34-.322.101-.647.181-.976.224-.325.054-.646.102-.969.102-.638.04-1.257-.033-1.83-.116l-.421-.098-.183-.046-.04-.023c-.071-.061-.097.025-.163.063-.016.013-.1.123-.167.208l-.2.262-.361.522-1.017 1.65-.286.438-.108.146.104-.148c.076-.093.148-.255.234-.463.171-.421.337-1.053.525-1.86l.162-.636c.026-.111.065-.226.101-.343l.147-.422c.095-.167.213-.328.327-.502.061-.08.111-.186.185-.25l.318-.02.533-.039.368-.031 1.52-.28c.26-.043.519-.123.781-.191.266-.06.529-.139.797-.225l.793-.246.771-.264 1.463-.574c.47-.196.905-.418 1.315-.635.405-.225.775-.455 1.1-.689.314-.241.612-.463.826-.697.23-.223.402-.439.532-.624.143-.178.205-.344.265-.447l.084-.166z"/><path d="M481.75 385.75l-5.715-4.292-6.924-4.725c-2.766-1.742-5.877-3.777-9.435-5.84l-5.575-3.243-6.1-3.415-13.58-7.316-15.087-7.95-16.164-8.64-16.168-8.66-15.103-8.005c-4.772-2.663-9.145-5.48-13.075-8.322-3.952-2.817-7.499-5.609-10.752-8.134l-8.749-6.845-6.697-5.045-5.877-4.068 5.955 3.957 6.882 4.801 9.027 6.479 10.975 7.769c3.963 2.758 8.233 5.636 12.85 8.479 4.63 2.833 9.624 5.616 14.855 8.384 5.245 2.745 10.742 5.46 16.417 8.153l16.48 8.034 15.147 7.911c4.785 2.604 9.278 5.185 13.43 7.688 2.093 1.223 4.056 2.505 5.97 3.686s3.718 2.371 5.436 3.51c3.465 2.232 6.488 4.42 9.182 6.276l6.758 4.976 5.637 4.397z"/><path d="M339 299.5s-.168-.123-.499-.309-.827-.427-1.465-.691c-1.265-.544-3.099-1.182-4.788-2.366-1.699-1.172-2.931-2.658-3.878-3.649l-1.157-1.126-.463-.358s.168.123.499.31.829.43 1.469.696c1.27.547 3.102 1.186 4.785 2.361 1.692 1.162 2.921 2.649 3.873 3.644l1.16 1.13.464.358z"/><path d="M331.25 273.5s-.008.254.025.714l.085.841.133 1.124c.047.833.202 1.856.145 2.974l-.114 1.758-.355 1.845c-.157.624-.383 1.212-.598 1.778s-.471 1.095-.733 1.588l-.768 1.385-.727 1.17-1.022 1.685L327 291s.109-.229.264-.664c.147-.438.372-1.066.526-1.887l.54-2.849.323-1.653.417-1.74.49-1.717.499-1.596.47-1.459.367-1.297c.219-.8.263-1.466.316-1.925l.038-.713z"/><path d="M329.5 292.5s-.094-.045-.282-.086c-.094-.025-.217-.034-.355-.069s-.322-.035-.506-.103c-.188-.059-.418-.11-.638-.249-.228-.116-.474-.305-.673-.55-.211-.247-.365-.559-.458-.89s-.107-.674-.069-1.005c.048-.322.141-.62.272-.874.124-.26.285-.479.448-.678.34-.387.686-.682.972-.923.588-.467.789-.824.789-.824s-.056.089-.118.271c-.07.177-.122.462-.145.824a16.78 16.78 0 0 0-.018 1.234l-.004.649-.048.596c-.041.372-.135.635-.173.951-.008.151-.032.341.024.5.036.169.102.34.185.484.166.292.375.506.538.598.16.108.259.144.259.144z"/><path d="M502.75 314.75l-6.783-2.16-7.973-2.48-1.186-.364-1.245-.313-2.607-.655-5.67-1.416-6.236-1.55-6.818-1.439-15.067-3.048-16.699-3.146-17.929-3.445-9.086-1.839-8.789-1.984-8.469-1.97-8.055-2.17-7.654-2.081-7.109-2.444-12.477-4.91c-3.833-1.423-7.378-2.51-10.565-3.148-3.186-.65-5.993-.829-8.28-.804l-1.618.094-.374.022c-.107.027-.283-.03-.306.065l-.132.669c-.164.866-.343 1.593-.428 2.19-.117.593-.142 1.053-.16 1.361l-.033.467.033-.467c.019-.309.042-.769.156-1.362.081-.599.254-1.326.41-2.194l.127-.681c-.013-.093.093-.055.146-.069l.182-.014.374-.026 1.62-.117a41.45 41.45 0 0 1 8.328.623c3.22.553 6.818 1.532 10.717 2.827 3.902 1.283 8.104 2.894 12.647 4.459 2.273.783 4.636 1.523 7.097 2.166l7.694 1.829 8.077 1.941 8.484 1.786 8.786 1.861 9.08 1.794 17.891 3.601 16.639 3.551c5.307 1.11 10.3 2.416 14.986 3.558l6.772 1.69 6.191 1.775 5.626 1.607 2.588.734 1.235.351 1.178.397 7.921 2.659 6.763 2.219z"/><path d="M319.25 261.5s-.102.025-.272.114-.405.252-.721.464a4.01 4.01 0 0 1-.55.332c-.204.113-.47.212-.773.269-.167.012-.335.034-.527.01-.206-.055-.417-.077-.631-.223-.459-.245-.761-.772-.848-1.213-.049-.225-.036-.407-.036-.607a3.51 3.51 0 0 1 .1-.494c.102-.292.224-.558.38-.766.301-.435.629-.749.897-1.01l.576-.625c.115-.155.155-.251.155-.251s-.05.092-.099.277c-.057.182-.094.467-.087.829.001.357.029.792.089 1.216.015.215.059.414.075.599.023.083.029.17.039.242.026.049.024.125.035.149.018.011.006.043-.076.065a.25.25 0 0 0-.075.055c.023-.02.038-.04.046-.057-.001-.024.013.031.02.075.029.044.091.087.143.143.139.075.303.203.49.248.181.055.365.135.537.155.348.079.637.088.824.059.19-.02.289-.055.289-.055z"/><path d="M424.25 234.25l-4.231 1.185-4.944 1.462-6.513 2.045-7.857 2.591-9.04 2.896-10.059 2.988c-3.497 1.016-7.15 1.955-10.898 2.893-3.767.884-7.427 1.795-10.933 2.781l-10.114 2.849c-3.226.907-6.285 1.808-9.23 2.302l-8.166 1.453c-2.487.483-4.779.673-6.779.903l-5.127.589-4.357.563s1.549-.224 4.34-.698l5.076-.889c1.976-.361 4.232-.711 6.683-1.354l8.049-1.862c2.909-.579 5.983-1.367 9.255-2.05 3.262-.725 6.721-1.36 10.208-2.405 3.502-.986 7.1-2.107 10.764-3.32l10.694-3.544 10.04-3.049c6.41-1.909 12.291-3.296 17.199-4.536 2.45-.634 4.694-1.109 6.655-1.561l5.023-1.171 4.262-1.061z"/><path d="M331 275.5s.136-.259.317-.747c.089-.243.14-.567.212-.929s.092-.795.14-1.255c.071-.941.065-2.054.313-3.287.059-.304.151-.626.241-.945l.065-.228c-.011.018-.008-.006-.012-.006-.006-.011-.013-.018-.019-.021-.017-.004-.035.028-.033.039v.011c-.008-.001.022.011-.018-.001l-.134-.041-.536-.165c-.723-.233-1.389-.403-2.048-.461a6.66 6.66 0 0 0-.976-.021c-.06.013-.188-.006-.324-.029l-.383-.06-.372-.058-.092-.015c-.017-.021-.017-.06-.026-.088l-.042-.186c-.144-.584-.13-.739-.193-1.021-.064-.267-.094-.526-.11-.782-.077-.519-.079-1.022-.143-1.482-.085-.927-.214-1.686-.335-2.197s-.241-.776-.241-.776.114.265.366.728l1.075 1.998c.223.43.412.935.583 1.486.058.289.104.592.117.905.03.292-.083.783-.033.694-.001.019.03.036.045.057l.021.031.008.016c.01.006.072.017.107.025.326.071.657.127.997.151.681.059 1.401.01 2.1-.101l.522-.073.129-.018c.047-.004.151.022.224.03l.476.078.931.154.454.077.112.019c.018.004.04.004.053.012l-.013.056-.053.224-.374 1.557-.238.891c-.332 1.168-.856 2.22-1.291 3.078l-.634 1.145-.5.836-.435.695z"/><path d="M290.47 243.519l.222-.108c.019-.01.037-.01.056-.017l-1.273-5.026-2.349-8.33c-.817-3.007-1.98-6.126-3.141-9.429-1.152-3.31-2.49-6.719-3.961-10.243-1.482-3.511-3.215-7.094-5.435-10.496-2.2-3.412-4.828-6.427-7.745-8.891-2.912-2.471-6.047-4.455-9.186-6.03l-4.646-2.142-2.215-1.008-2.124-1.04-7.751-3.817c-1.182-.591-2.328-1.117-3.408-1.621-1.075-.515-2.1-.975-3.075-1.37s-1.858-.814-2.708-1.115l-2.319-.826c-.689-.27-1.323-.443-1.876-.579l-1.391-.371-1.145-.31 1.143.319 1.384.392c.55.146 1.179.331 1.861.618l2.291.888c.837.324 1.709.771 2.665 1.199a53.74 53.74 0 0 1 3.018 1.471l3.344 1.732 7.656 4.021c2.751 1.452 5.877 2.693 9.049 4.073 3.156 1.446 6.339 3.305 9.219 5.767 2.893 2.444 5.411 5.512 7.427 8.973 2.035 3.453 3.605 7.047 5.053 10.545 1.426 3.506 2.745 6.935 3.914 10.215 1.179 3.28 2.415 6.357 3.327 9.323.946 2.953 1.949 5.67 2.647 8.217l1.472 5.016z"/><path d="M387.25 218.001l-1.987-.114-5.406-.467c-4.559-.421-10.849-1.146-17.813-1.316-3.481-.076-6.806.016-9.797.383-2.992.351-5.651.978-7.76 1.84a16.49 16.49 0 0 0-2.744 1.37c-.763.483-1.397.945-1.86 1.384-.492.408-.813.789-1.038 1.04l-.345.381.329-.395c.216-.259.522-.654 1.003-1.082.449-.458 1.072-.946 1.827-1.458.763-.502 1.671-1.023 2.734-1.465 2.11-.929 4.788-1.623 7.801-2.022 3.014-.416 6.361-.539 9.86-.463 7 .172 13.284 1.02 17.828 1.562l5.387.634 1.981.188z"/><path d="M338.5 257.75l-.288-.39c-.176-.256-.469-.615-.741-1.107-.262-.494-.609-1.079-.86-1.78l-.395-1.101-.322-1.212c-.16-.843-.293-1.65-.32-2.394-.059-.739-.032-1.409-.011-1.968.014-.559.093-1.01.123-1.319l.065-.48.089.477.224 1.292.363 1.889.472 2.284.271 1.173c.074.383.192.737.272 1.088.151.704.369 1.31.506 1.844l.406 1.239.146.465z"/><path d="M224 270.5l-1.906 3.238-.979 1.629c-.34.594-.761 1.189-1.196 1.821l-2.86 4.092-3.056 3.946-2.575 3.159-2.429 2.864 2.237-3.016 5.43-7.244 2.914-4.036 1.257-1.772 1.051-1.576L224 270.5z"/><path d="M194 289.5l1.103-.673 3.074-1.723c2.627-1.4 6.374-3.097 10.472-5.004 2.047-.965 3.972-1.928 5.693-2.861.843-.495 1.667-.93 2.395-1.407.746-.45 1.421-.898 2.022-1.33.619-.409 1.141-.829 1.605-1.191a14.53 14.53 0 0 0 1.166-.96l.97-.852-.919.907a13.29 13.29 0 0 1-1.119 1.023c-.449.385-.955.832-1.559 1.268a27.8 27.8 0 0 1-1.986 1.415c-.718.505-1.534.966-2.373 1.484-1.71.98-3.634 1.977-5.688 2.944l-10.571 4.781c-1.338.64-2.417 1.172-3.146 1.57L194 289.5z"/><path d="M239 354.25l-5.022-6.183-5.411-6.73-3.195-3.971-3.442-4.25-3.488-4.21-3.292-3.885-3.017-3.483-2.682-2.991-3.985-4.242-1.468-1.555 1.579 1.44 4.248 3.997 2.833 2.866 3.158 3.379 3.401 3.814 3.542 4.189 3.421 4.286 3.107 4.053 5.123 6.963 4.59 6.513z"/><path d="M242 348.25l-1.121-.348c-.367-.104-.801-.265-1.297-.475l-1.674-.746c-.618-.289-1.27-.647-1.958-1.057-.704-.386-1.398-.884-2.154-1.373a49.67 49.67 0 0 1-4.561-3.646c-3.066-2.781-5.556-5.565-7.35-7.577l-2.884-3.279s1.259 1.1 3.226 2.945l7.679 7.163c1.527 1.356 3.01 2.608 4.401 3.696.713.516 1.365 1.051 2.023 1.477.644.45 1.252.856 1.828 1.195a20.23 20.23 0 0 0 1.564.903c.464.263.873.475 1.218.622l1.06.5z"/><path d="M293.75 309.5l-.227.542-.677 1.546-1.19 2.394-1.759 3.075c-1.357 2.248-3.119 4.832-5.158 7.635s-4.364 5.815-6.778 8.985-4.681 6.21-6.577 9.082l-2.57 4.151-1.936 3.783c-1.083 2.364-1.689 4.396-1.991 5.821-.174.71-.24 1.273-.299 1.654l-.087.581.047-.586.194-1.677c.217-1.45.704-3.538 1.681-5.987.469-1.231 1.09-2.535 1.789-3.917l2.452-4.286c1.829-2.959 4.056-6.065 6.473-9.247l6.898-8.888c2.108-2.733 3.964-5.226 5.423-7.389.73-1.08 1.366-2.074 1.911-2.956.535-.888.987-1.659 1.332-2.303.364-.635.603-1.15.782-1.491l.267-.522z"/><path d="M284.5 377.5l-.836-.644c-.278-.191-.563-.497-.989-.719l-1.399-.79c-.564-.196-1.131-.519-1.811-.673l-1.037-.27c-.36-.076-.742-.109-1.125-.17-.383-.069-.782-.098-1.193-.11l-1.253-.045c-.855-.004-1.746.022-2.664.068l-2.699.111c-.874.035-1.733.009-2.543-.019l-2.303-.284c-.722-.104-1.367-.328-1.954-.522-.599-.155-1.075-.478-1.52-.671s-.782-.456-1.063-.652l-.861-.611.935.486c.3.154.651.367 1.114.501s.938.393 1.534.48c.582.127 1.212.278 1.913.32.688.101 1.44.09 2.225.112l2.482-.096 2.691-.155 2.732-.028c.441-.006.881.064 1.308.097s.845.084 1.248.18l1.176.255 1.077.367c.698.224 1.274.618 1.83.882.521.332.955.691 1.349.977.402.277.654.629.904.859l.732.764z"/><path d="M283 375.5l-.859-.362-2.326-1-3.472-1.395-2.058-.785-2.221-.806-2.24-.745c-.717-.264-1.431-.442-2.101-.651l-1.913-.558-1.683-.439-2.467-.555-.91-.204.93.045 2.54.202 1.745.252c.632.078 1.286.251 1.983.4l2.169.546 2.294.713 2.24.861c.726.272 1.392.616 2.041.907 1.301.58 2.412 1.226 3.355 1.738l2.172 1.328.781.508z"/><path d="M289.25 348.5l-3.3 1.241-8.016 2.854-2.353.644c-.756.218-1.513.339-2.223.485l-2.031.337-1.788.18c-.543.071-1.042.055-1.479.049l-1.116-.018-.945-.022.94-.13c.602-.106 1.479-.137 2.537-.375l1.73-.362c.623-.104 1.272-.318 1.964-.493l2.157-.594 2.307-.683 8.161-2.364 2.525-.564.93-.185z"/><path d="M286.25 363.25l-2.977-2.246-3.189-2.451-1.919-1.361-1.039-.669-1.1-.626c-.755-.387-1.496-.769-2.252-1.012-.371-.144-.739-.274-1.113-.346s-.73-.213-1.093-.233l-1.06-.116c-.345-.012-.681.017-1.008.021l-.482.013-.458.078-.868.15c-.549.117-1.025.312-1.461.435-.443.112-.772.332-1.071.448l-.91.415.84-.545c.281-.158.589-.429 1.019-.6l1.446-.632.891-.255.478-.131.51-.064 1.081-.115 1.154.039c.399-.001.79.119 1.2.178s.817.18 1.224.318c.828.236 1.629.622 2.429 1.034l1.151.669 1.063.723 1.897 1.492 2.985 2.749 2.632 2.64z"/><path d="M227.749 269.5l-.32.654-.381.757c-.146.295-.336.617-.479 1.008l-.522 1.242c-.21.435-.348.936-.525 1.445-.161.517-.394 1.035-.515 1.612l-.465 1.754-.345 1.782c-.129.573-.147 1.143-.231 1.677l-.15 1.53-.076 1.347c-.044.414.001.785-.003 1.115l.012.848.001.728-.157-.708-.174-.839c-.056-.328-.165-.701-.184-1.121l-.111-1.376c-.056-.498-.04-1.028-.01-1.588.038-.558.019-1.153.125-1.755l.317-1.865.528-1.817c.154-.592.433-1.119.645-1.637.229-.511.425-1.005.695-1.427l.703-1.189c.203-.368.451-.664.65-.932l.524-.678.448-.567z"/><path d="M268 266.25l-.513.829-.613.974c-.248.373-.495.831-.873 1.251l-1.183 1.428c-.409.532-.934 1.015-1.475 1.534-.554.503-1.085 1.1-1.742 1.583l-1.996 1.55-2.116 1.372c-.677.455-1.386.797-2.038 1.16l-1.887.962-1.679.764-2.472.998-.913.345.851-.48 2.318-1.296 1.583-.918c.577-.313 1.159-.706 1.787-1.09l1.949-1.235 2.052-1.38 1.976-1.481c.66-.452 1.198-1.004 1.771-1.462l1.55-1.389 1.292-1.281c.419-.374.709-.786 1.001-1.121l.734-.872.636-.745z"/><path d="M241.5 310.75l4.334-3.512 4.73-3.763 2.786-2.224 2.972-2.404 2.915-2.468 2.661-2.355 2.361-2.186 1.992-1.975c.631-.587 1.132-1.179 1.583-1.69l1.164-1.31 1.002-1.114-.884 1.207-1.048 1.413-1.456 1.82-1.875 2.118c-.657.78-1.461 1.511-2.27 2.319l-2.607 2.463-2.91 2.52-3.016 2.385-2.865 2.143-4.944 3.494-4.625 3.119z"/><path d="M275.25 305l-.516-.732c-.172-.23-.342-.535-.619-.835l-.895-1.036c-.376-.34-.727-.77-1.199-1.125l-.708-.573c-.248-.189-.529-.35-.8-.534-.269-.19-.556-.362-.867-.509s-.603-.342-.937-.464l-1.005-.402-1.069-.308c-.732-.161-1.454-.312-2.164-.343-.706-.088-1.396-.028-2.051-.007l-1.847.286c-.584.1-1.1.289-1.583.441-.492.131-.892.361-1.271.506s-.682.321-.933.459l-.787.426.705-.553c.228-.179.506-.405.866-.607s.743-.493 1.229-.689c.476-.218.995-.476 1.594-.642.585-.218 1.238-.339 1.93-.467.694-.073 1.437-.176 2.202-.112.77.007 1.559.149 2.353.326l1.158.345 1.076.465c.355.147.666.369.988.546a5.88 5.88 0 0 1 .895.602l.805.634.691.671c.455.42.775.91 1.115 1.305.316.417.545.835.771 1.18.233.34.358.68.492.937l.381.809z"/><path d="M278.25 324l1.418-4.24c.804-2.637 1.837-6.316 2.428-10.466.295-2.073.429-4.07.351-5.879-.024-.905-.137-1.758-.263-2.552-.154-.787-.32-1.521-.565-2.159-.449-1.294-1.063-2.239-1.555-2.827-.231-.31-.456-.509-.597-.655l-.218-.222.232.206c.149.137.389.324.64.621.529.563 1.208 1.489 1.726 2.79.277.643.478 1.383.664 2.183.157.804.298 1.673.347 2.594.125 1.839.02 3.871-.279 5.968-.599 4.2-1.758 7.87-2.68 10.475-.934 2.606-1.649 4.163-1.649 4.163z"/><path d="M323.5 388l.091-3.71.061-4.352-.038-5.762-.247-6.975-.559-7.986-.455-4.305-.573-4.477-.707-4.621-.874-4.733-2.194-9.233-.587-2.202-.659-2.135-1.314-4.123-2.851-7.476-1.419-3.339-1.439-3.021c-.875-1.947-1.853-3.613-2.644-5.112l-1.132-2.073-1.033-1.696L303 297.5l1.991 3.129 1.066 1.679 1.169 2.056 2.728 5.079 1.483 3.009 1.463 3.33c1.047 2.288 1.938 4.824 2.933 7.471l1.349 4.127.674 2.139.6 2.207 2.223 9.259.871 4.749.694 4.638.55 4.491.426 4.318.481 8.008.157 6.986-.051 5.767-.14 4.352L323.5 388z"/><path d="M333.75 315l-.895.546c-.284.181-.652.368-1.025.669l-1.281.988c-.433.414-.959.81-1.411 1.351l-.729.806-.694.918c-.252.304-.446.66-.67 1.006l-.634 1.088c-.419.748-.764 1.566-1.119 2.402l-.833 2.525c-.25.823-.421 1.639-.596 2.411l-.688 4.162-.32 2.835-.104 1.043.028-1.048.153-2.855.526-4.216.55-2.456c.212-.849.515-1.704.828-2.579l1.164-2.449c.195-.394.436-.751.671-1.103s.445-.708.712-1.013l.74-.916.776-.794c.482-.532 1.037-.913 1.496-1.309.469-.386.955-.651 1.349-.926s.776-.446 1.073-.607l.933-.479z"/><path d="M385.5 328.75l-1.819-1.254-2.131-1.477-2.784-2.011-3.281-2.561-3.695-3.024-4.022-3.411-4.27-3.714-4.285-3.693-4.05-3.366-3.729-2.966-3.328-2.483c-.997-.791-1.989-1.373-2.831-1.929l-2.173-1.406-1.852-1.205 1.891 1.14 2.218 1.342 2.886 1.858 3.391 2.417c1.238.843 2.467 1.866 3.786 2.911l4.094 3.331 4.305 3.683 4.254 3.729 3.983 3.449 3.64 3.08 3.22 2.626c.967.827 1.92 1.472 2.726 2.079l2.084 1.539 1.772 1.316z"/><path d="M373.75 283.25l-1.439.443a14.49 14.49 0 0 1-1.708.451l-2.299.451-2.816.357-3.25.227-7.445.126-3.844.088-3.569.226-3.199.453-1.439.277-1.307.348c-.843.19-1.561.498-2.209.724l-.896.334-.725.348-1.356.647 1.323-.716.712-.383c.265-.129.566-.239.884-.374.641-.253 1.355-.592 2.197-.813l1.307-.396 1.443-.323c.995-.247 2.082-.363 3.22-.536l3.592-.282 3.861-.109 7.435-.049 3.236-.147 2.809-.268c.862-.076 1.624-.249 2.302-.36.68-.104 1.254-.246 1.721-.374l1.459-.37z"/><path d="M354.25 277.75s-5.006-.098-11.153-.49l-4.333-.362s-2.528-.24-3.529-.403L332 276l3.262.251 3.536.236 4.331.286c6.145.392 11.121.977 11.121.977z"/><path d="M348.25 275.25l.035-.749.051-.873c.014-.339.068-.72.042-1.148l-.018-1.391c.018-.497-.041-1.028-.089-1.585l-.163-1.74-.268-1.857-.387-1.835c-.096-.601-.302-1.15-.439-1.691l-.456-1.521-.466-1.311c-.276-.808-.614-1.413-.792-1.861L345 257l.422.617c.251.408.697.963 1.095 1.733l.647 1.266c.251.45.418.971.627 1.509.19.543.44 1.102.567 1.718l.446 1.893.237 1.931c.087.623.04 1.234.058 1.809l-.068 1.633-.164 1.412c-.036.432-.152.813-.225 1.148l-.208.856-.184.725z"/><path d="M380.5 220l-1.984.07-5.417.243-8.024.255-4.724.107-5.067.176-2.564.22c-.843.086-1.661.253-2.47.389-.811.125-1.587.346-2.346.558l-2.205.687-2.066.731-1.916.772c-1.263.436-2.357 1.031-3.404 1.478-1.038.467-1.908 1.023-2.712 1.443-.81.414-1.434.888-1.969 1.237l-1.631 1.133 1.59-1.191c.514-.38 1.108-.899 1.885-1.376l2.612-1.668c1.02-.527 2.09-1.219 3.357-1.705l1.95-.782 2.14-.618c.727-.226 1.497-.357 2.273-.529l2.378-.494 2.473-.472 2.56-.439 5.089-.541 4.757-.142 8.037.275 5.413.184L380.5 220z"/><path d="M251.75 182l.01.912.053 1.074c.014.419.089.904.057 1.431l-.045 1.737c-.009.629-.084 1.29-.198 1.98l-.409 2.151c-.16.739-.394 1.49-.636 2.259-.236.768-.433 1.524-.571 2.266-.166.738-.149 1.473-.194 2.162l-.13 1.947-.179 1.693c-.09.521-.057.99-.063 1.406l.012 1.069.044.913-.115-.904-.174-1.063c-.063-.416-.189-.891-.183-1.421l-.045-1.739c-.024-.63.123-1.285.265-1.971l.437-2.147c.137-.744.218-1.526.279-2.333l.28-2.327.371-2.134.762-3.588c.134-.512.149-.983.208-1.396l.107-1.065.057-.912z"/><path d="M260.25 185.75l-.675.529c-.22.166-.454.412-.728.692-.279.273-.572.609-.881.993-.321.369-.638.805-.985 1.262l-1.1 1.46-1.217 1.61-1.35 1.714a12.11 12.11 0 0 0-1.222 1.816c-.335.623-.582 1.262-.787 1.877l-.634 1.716-.587 1.48-.385 1.26-.18.984-.019.857-.05-.858c-.023-.279.017-.616.02-1.016s.094-.844.153-1.347c.183-.985.473-2.17 1.161-3.31l1.018-1.798.978-1.991c.322-.694.666-1.36 1.073-1.954.389-.607.819-1.155 1.226-1.677l1.297-1.366 1.245-1.072 1.078-.812.835-.574.716-.475z"/><path d="M268.5 251l-2.485-2.077-6.853-5.574-10.136-8.294-5.913-4.977-6.311-5.389-6.464-5.205c-2.088-1.684-4.28-3.069-6.296-4.481l-5.767-3.947-5.029-3.438c-1.512-1.093-2.976-1.929-4.228-2.718l-3.238-1.986-2.778-1.665 2.814 1.602 3.322 1.848 4.364 2.515 5.167 3.258c1.873 1.15 3.737 2.579 5.706 4.067l3.023 2.286a109.33 109.33 0 0 1 3.141 2.396l6.657 4.976 6.551 5.116 5.943 4.958c3.762 3.191 7.025 6.205 9.797 8.701L268.5 251z"/><path d="M308 262l.52-.428.609-.495c.227-.205.533-.379.781-.675l.847-.921.467-.513.412-.609c.267-.426.621-.824.857-1.318l.752-1.512.553-1.598c.214-.507.245-1.044.37-1.531.103-.493.222-.96.233-1.411l.11-1.248c.057-.382.013-.729.015-1.034l-.017-.785-.009-.672.085.665.095.784c.026.307.101.656.075 1.045l-.022 1.274c.016.462-.077.944-.16 1.454-.104.505-.12 1.061-.327 1.589l-.551 1.657-.798 1.556c-.256.503-.637.906-.93 1.331l-.456.604c-.164.182-.346.338-.509.499l-.93.876c-.272.278-.603.432-.849.615l-.661.436L308 262z"/><path d="M246.25 294.75l.548-.561.645-.652c.246-.26.555-.525.838-.877l.962-1.109c.359-.387.695-.84 1.054-1.311l1.112-1.487 1.13-1.643 1.061-1.692.948-1.603 1.554-2.751 1.398-2.561-1.181 2.672-1.412 2.841-.907 1.643-1.053 1.72-1.16 1.65c-.362.542-.798 1.002-1.169 1.472l-1.125 1.274-1.037 1.058c-.307.333-.639.579-.906.818l-.701.598-.599.501z"/><path d="M297.5 128.5l.708 2.102.822 2.472 1.04 3.29 1.148 4.021 1.241 4.638 1.225 5.164c.462 1.782.717 3.683 1.07 5.606l.486 2.857.253 2.83c.133.924.001 1.851-.005 2.748l-.064 1.332-.218 1.288c-.143.848-.264 1.678-.536 2.446l-.719 2.243-.832 2.027-.859 1.82-2.745 5.396-1.017 1.972.879-2.037 2.432-5.535.765-1.843.732-2.026c.262-.697.401-1.453.619-2.21.241-.754.331-1.56.445-2.38l.179-1.244.03-1.287c-.016-.867.098-1.751-.05-2.652l-.284-2.747-.504-2.827-1.038-5.567-1.111-5.167-1.078-4.662-.958-4.061-.85-3.336-.656-2.518-.55-2.153z"/><path d="M294 132.25l-.27.521c-.162.348-.468.828-.739 1.499-.227.691-.606 1.496-.796 2.511-.271.99-.419 2.154-.552 3.436-.104 1.288-.142 2.704-.114 4.227l.226 4.866c.099 1.686.428 3.459.74 5.298l1.034 5.723c.145.991.307 1.989.237 3.077-.12 1.008-.381 1.974-.69 2.877-.62 1.814-1.39 3.463-2.085 5.036l-1.762 4.503c-.414 1.433-.597 2.843-.242 4.028.347 1.192 1.237 2.005 2.113 2.495.874.517 1.737.764 2.433.96l1.639.343.577.099-.583-.057c-.385-.026-.947-.098-1.669-.231-.715-.152-1.604-.344-2.553-.829a5.75 5.75 0 0 1-1.405-.974c-.419-.444-.828-.982-1.047-1.644-.226-.653-.319-1.377-.302-2.12.034-.74.157-1.495.338-2.259.381-1.522.978-3.072 1.632-4.671l1.938-5.003c.281-.874.508-1.767.608-2.684.042-.851-.099-1.807-.246-2.781l-.99-5.713-.635-5.424-.054-4.919.319-4.287c.203-1.3.422-2.475.761-3.467.256-1.016.697-1.814.974-2.491.321-.658.666-1.119.854-1.452l.311-.493z"/></g></g></svg>