<svg width="70" height="82" viewBox="0 0 70 82" fill="none" xmlns="http://www.w3.org/2000/svg">
<g id="logo" clip-path="url(#clip0_248_154)">
<path id="Vector" d="M4.27963 67.122V70.1342C4.27963 70.7475 4.65361 71.0537 5.40161 71.0537H7.21889V66.2976H5.3226C4.62729 66.2976 4.27963 66.5725 4.27963 67.122ZM11.7384 72.3537H8.84655V74.4305H7.21889V72.3537H4.32704C3.21035 72.3537 2.65198 71.7884 2.65198 70.6574V66.6939C2.65198 65.5633 3.21035 64.9976 4.32704 64.9976H7.21889V63H8.84655V64.9976H11.7384C12.8446 64.9976 13.3977 65.5633 13.3977 66.6939V70.6574C13.3977 71.7884 12.8446 72.3537 11.7384 72.3537ZM11.7858 70.1342V67.122C11.7858 66.7841 11.691 66.5567 11.5014 66.4403C11.3539 66.3451 11.101 66.2976 10.7428 66.2976H8.84655V71.0537H10.6638C11.4118 71.0537 11.7858 70.7475 11.7858 70.1342ZM14.9514 63H16.5632V71.3549L22.5524 63.8085V63H24.1642V74.4305H22.5524V66.1073L16.5632 73.622V74.4305H14.9514V63ZM28.7996 68.2951H32.529V63H34.1409V74.4305H32.529V69.5634H28.0569C26.6347 69.5634 25.9236 68.85 25.9236 67.4232V63H27.5354V66.8207C27.5354 67.8037 27.9568 68.2951 28.7996 68.2951ZM39.0058 67.1537V63H45.5799V74.4305H43.952V64.3H40.5545V67.1537C40.5545 72.0049 39.3429 74.4305 36.9199 74.4305H35.8927V73.1305C36.6618 73.1305 37.2254 73.0037 37.5836 72.75C38.5317 72.0738 39.0058 70.2085 39.0058 67.1537ZM47.328 74.4305L51.4367 63H52.8273L56.9359 74.4305H55.2293L54.0599 71.1171H50.2041L49.0189 74.4305H47.328ZM52.1478 65.6634L50.6782 69.8171H53.5858L52.1478 65.6634ZM64.2708 74.4305H58.408V63H66.0722V64.3H60.0199V67.7086H64.2708C66.5675 67.7086 67.7157 68.8079 67.7157 71.0061C67.7157 72.0842 67.4105 72.9244 66.7991 73.5269C66.1883 74.1293 65.3453 74.4305 64.2708 74.4305ZM63.5438 68.9451H60.0199V73.1305H63.6703C65.2821 73.1305 66.088 72.4226 66.088 71.0061C66.088 70.203 65.851 69.6427 65.3769 69.3256C64.9977 69.072 64.3868 68.9451 63.5438 68.9451Z" fill="#002D63"/>
<g id="&#209;&#129;&#209;&#130;&#209;&#131;&#208;&#180;&#208;&#184;&#209;&#143; &#209;&#128;&#208;&#176;&#208;&#183;&#209;&#128;&#208;&#176;&#208;&#177;&#208;&#190;&#209;&#130;&#208;&#186;&#208;&#184;">
<path d="M3.76775 80.5264C3.46472 80.5264 3.20377 80.4546 2.98492 80.3111C2.76606 80.1675 2.59771 79.9698 2.47987 79.7178C2.36202 79.4659 2.3031 79.1781 2.3031 78.8543C2.3031 78.525 2.36343 78.2344 2.48408 77.9824C2.60613 77.7291 2.77588 77.5313 2.99334 77.3892C3.21219 77.2456 3.46752 77.1738 3.75933 77.1738C3.9866 77.1738 4.19143 77.2161 4.37381 77.3005C4.55619 77.3849 4.7056 77.5032 4.82204 77.6552C4.93848 77.8072 5.01073 77.9845 5.03879 78.1872H4.54216C4.50428 78.0394 4.4201 77.9085 4.28963 77.7945C4.16056 77.6791 3.9866 77.6214 3.76775 77.6214C3.57414 77.6214 3.40439 77.6721 3.25849 77.7734C3.11399 77.8733 3.00105 78.0148 2.91968 78.1978C2.83972 78.3793 2.79973 78.5926 2.79973 78.8375C2.79973 79.088 2.83902 79.3061 2.91758 79.4919C2.99755 79.6777 3.10978 79.822 3.25428 79.9247C3.40018 80.0275 3.57134 80.0788 3.76775 80.0788C3.89682 80.0788 4.01396 80.0563 4.11918 80.0113C4.2244 79.9662 4.31348 79.9015 4.38643 79.8171C4.45939 79.7326 4.51129 79.6313 4.54216 79.513H5.03879C5.01073 79.7045 4.94129 79.8769 4.83046 80.0303C4.72103 80.1823 4.57583 80.3033 4.39485 80.3934C4.21528 80.4821 4.00624 80.5264 3.76775 80.5264Z" fill="#002D63"/>
<path d="M6.22128 77.6805V77.2161H8.84755V77.6805H7.78694V80.4589H7.29031V77.6805H6.22128Z" fill="#002D63"/>
<path d="M10.603 81.6749C10.5188 81.6749 10.4437 81.6679 10.3778 81.6538C10.3118 81.6411 10.2663 81.6285 10.241 81.6158L10.3673 81.1767C10.4879 81.2076 10.5945 81.2189 10.6871 81.2104C10.7797 81.202 10.8618 81.1605 10.9333 81.0859C11.0063 81.0127 11.0729 80.8938 11.1333 80.7291L11.2258 80.4758L10.0306 77.2161H10.5693L11.4615 79.8002H11.4952L12.3875 77.2161H12.9262L11.5541 80.9318C11.4924 81.0993 11.4159 81.2379 11.3248 81.3477C11.2336 81.4589 11.1276 81.5412 11.007 81.5947C10.8877 81.6482 10.7531 81.6749 10.603 81.6749Z" fill="#002D63"/>
<path d="M13.6757 81.3878V79.9944H13.9451C14.011 79.9254 14.0678 79.8508 14.1155 79.7706C14.1632 79.6904 14.2046 79.5954 14.2397 79.4856C14.2762 79.3744 14.307 79.2393 14.3323 79.0802C14.3575 78.9198 14.38 78.7263 14.3996 78.4997L14.509 77.2161H16.5629V79.9944H17.0595V81.3878H16.5629V80.4589H14.1723V81.3878H13.6757ZM14.509 79.9944H16.0663V77.6805H14.972L14.8878 78.4997C14.8527 78.8389 14.8093 79.1351 14.7574 79.3885C14.7054 79.6418 14.6227 79.8438 14.509 79.9944Z" fill="#002D63"/>
<path d="M18.9265 79.7242L20.4837 77.2161H21.0561V80.4589H20.5595V77.9508L19.0107 80.4589H18.4298V77.2161H18.9265V79.7242Z" fill="#002D63"/>
<path d="M24.6213 80.4589V77.6721H23.7627C23.5691 77.6721 23.4169 77.7171 23.306 77.8072C23.1952 77.8973 23.1398 78.0211 23.1398 78.1788C23.1398 78.3336 23.1896 78.4553 23.2892 78.544C23.3902 78.6327 23.5284 78.677 23.7038 78.677H24.7475V79.1415H23.7038C23.4849 79.1415 23.2962 79.1028 23.1377 79.0254C22.9792 78.9479 22.8571 78.8375 22.7715 78.6939C22.686 78.5489 22.6432 78.3772 22.6432 78.1788C22.6432 77.9789 22.6881 77.8072 22.7778 77.6636C22.8676 77.5201 22.996 77.4096 23.163 77.3322C23.3313 77.2548 23.5312 77.2161 23.7627 77.2161H25.0927V80.4589H24.6213ZM22.4664 80.4589L23.3839 78.8459H23.9226L23.0051 80.4589H22.4664Z" fill="#002D63"/>
<path d="M29.0933 81.6749V77.2161H29.5731V77.7312H29.632C29.6685 77.6749 29.719 77.6031 29.7835 77.5158C29.8494 77.4272 29.9434 77.3484 30.0655 77.2794C30.189 77.209 30.3559 77.1738 30.5663 77.1738C30.8385 77.1738 31.0784 77.2421 31.286 77.3786C31.4937 77.5151 31.6557 77.7087 31.7721 77.9592C31.8886 78.2097 31.9468 78.5053 31.9468 78.8459C31.9468 79.1893 31.8886 79.487 31.7721 79.7389C31.6557 79.9895 31.4944 80.1837 31.2881 80.3216C31.0819 80.4582 30.8441 80.5264 30.5748 80.5264C30.3671 80.5264 30.2009 80.4919 30.076 80.423C29.9512 80.3526 29.8551 80.2731 29.7877 80.1844C29.7204 80.0943 29.6685 80.0197 29.632 79.9606H29.5899V81.6749H29.0933ZM29.5815 78.8375C29.5815 79.0824 29.6173 79.2984 29.6888 79.4856C29.7604 79.6714 29.8649 79.8171 30.0024 79.9226C30.1399 80.0268 30.3082 80.0788 30.5074 80.0788C30.715 80.0788 30.8883 80.024 31.0272 79.9142C31.1675 79.803 31.2727 79.6538 31.3429 79.4666C31.4144 79.278 31.4502 79.0683 31.4502 78.8375C31.4502 78.6094 31.4151 78.404 31.345 78.221C31.2762 78.0366 31.1717 77.8909 31.0314 77.784C30.8925 77.6756 30.7179 77.6214 30.5074 77.6214C30.3054 77.6214 30.1356 77.6728 29.9982 77.7755C29.8607 77.8769 29.7569 78.019 29.6867 78.202C29.6166 78.3835 29.5815 78.5954 29.5815 78.8375Z" fill="#002D63"/>
<path d="M34.3667 80.5349C34.1618 80.5349 33.976 80.4962 33.809 80.4187C33.6421 80.3399 33.5095 80.2266 33.4113 80.0788C33.3131 79.9297 33.264 79.7495 33.264 79.5384C33.264 79.3526 33.3005 79.202 33.3734 79.0866C33.4464 78.9698 33.5439 78.8783 33.6659 78.8121C33.788 78.746 33.9226 78.6967 34.07 78.6643C34.2187 78.6306 34.3681 78.6038 34.5182 78.5841C34.7146 78.5588 34.8738 78.5398 34.9959 78.5271C35.1193 78.513 35.2091 78.4898 35.2652 78.4574C35.3228 78.4251 35.3515 78.3688 35.3515 78.2885V78.2717C35.3515 78.0633 35.2947 77.9015 35.1811 77.7861C35.0688 77.6707 34.8984 77.613 34.6697 77.613C34.4326 77.613 34.2467 77.665 34.112 77.7692C33.9774 77.8733 33.8827 77.9845 33.828 78.1028L33.3566 77.9339C33.4407 77.7368 33.553 77.5834 33.6933 77.4736C33.835 77.3624 33.9893 77.285 34.1562 77.2414C34.3246 77.1963 34.4901 77.1738 34.6529 77.1738C34.7567 77.1738 34.8759 77.1865 35.0106 77.2118C35.1467 77.2358 35.2779 77.2857 35.4041 77.3617C35.5318 77.4377 35.6377 77.5524 35.7219 77.7059C35.8061 77.8593 35.8482 78.0648 35.8482 78.3223V80.4589H35.3515V80.0197H35.3263C35.2926 80.0901 35.2365 80.1654 35.1579 80.2456C35.0794 80.3259 34.9748 80.3941 34.8444 80.4504C34.7139 80.5067 34.5547 80.5349 34.3667 80.5349ZM34.4424 80.0873C34.6388 80.0873 34.8044 80.0486 34.9391 79.9712C35.0751 79.8938 35.1776 79.7938 35.2463 79.6714C35.3164 79.5489 35.3515 79.4201 35.3515 79.285V78.829C35.3305 78.8543 35.2842 78.8776 35.2126 78.8987C35.1425 78.9184 35.0611 78.936 34.9685 78.9515C34.8773 78.9655 34.7882 78.9782 34.7013 78.9895C34.6157 78.9993 34.5462 79.0078 34.4929 79.0148C34.3639 79.0317 34.2432 79.0591 34.131 79.0971C34.0202 79.1337 33.9304 79.1893 33.8616 79.2639C33.7943 79.3371 33.7606 79.437 33.7606 79.5637C33.7606 79.7368 33.8244 79.8677 33.9521 79.9564C34.0812 80.0437 34.2446 80.0873 34.4424 80.0873Z" fill="#002D63"/>
<path d="M37.2637 79.6313H37.794C37.8052 79.7776 37.8712 79.8888 37.9918 79.9648C38.1139 80.0408 38.2724 80.0788 38.4674 80.0788C38.6666 80.0788 38.8371 80.038 38.9788 79.9564C39.1205 79.8734 39.1913 79.7396 39.1913 79.5553C39.1913 79.4469 39.1647 79.3526 39.1113 79.2724C39.058 79.1907 38.983 79.1274 38.8862 79.0824C38.7894 79.0373 38.675 79.0148 38.5432 79.0148H37.9876V78.5672H38.5432C38.741 78.5672 38.8869 78.5222 38.9809 78.4321C39.0763 78.342 39.124 78.2294 39.124 78.0943C39.124 77.9493 39.0728 77.8332 38.9704 77.746C38.8679 77.6573 38.7227 77.613 38.5347 77.613C38.3454 77.613 38.1875 77.6559 38.0613 77.7417C37.935 77.8262 37.8684 77.9353 37.8613 78.069H37.3395C37.3451 77.8945 37.3984 77.7403 37.4994 77.6066C37.6004 77.4715 37.7379 77.3659 37.9118 77.2899C38.0858 77.2125 38.285 77.1738 38.5095 77.1738C38.7368 77.1738 38.9339 77.2139 39.1008 77.2942C39.2692 77.373 39.3989 77.4807 39.4901 77.6172C39.5827 77.7523 39.629 77.9057 39.629 78.0774C39.629 78.2604 39.5778 78.4082 39.4754 78.5208C39.373 78.6334 39.2446 78.7136 39.0903 78.7615V78.7952C39.2124 78.8037 39.3183 78.8431 39.4081 78.9135C39.4993 78.9824 39.5701 79.0732 39.6206 79.1858C39.6711 79.297 39.6964 79.4201 39.6964 79.5553C39.6964 79.7523 39.6438 79.924 39.5385 80.0704C39.4333 80.2154 39.2888 80.328 39.105 80.4082C38.9213 80.487 38.7115 80.5264 38.4758 80.5264C38.2472 80.5264 38.0423 80.4891 37.8613 80.4145C37.6804 80.3385 37.5366 80.2337 37.43 80.1C37.3247 79.9648 37.2693 79.8086 37.2637 79.6313Z" fill="#002D63"/>
<path d="M41.1051 81.6749V77.2161H41.5849V77.7312H41.6438C41.6803 77.6749 41.7308 77.6031 41.7953 77.5158C41.8613 77.4272 41.9552 77.3484 42.0773 77.2794C42.2008 77.209 42.3677 77.1738 42.5781 77.1738C42.8503 77.1738 43.0902 77.2421 43.2978 77.3786C43.5055 77.5151 43.6675 77.7087 43.784 77.9592C43.9004 78.2097 43.9586 78.5053 43.9586 78.8459C43.9586 79.1893 43.9004 79.487 43.784 79.7389C43.6675 79.9895 43.5062 80.1837 43.2999 80.3216C43.0937 80.4582 42.8559 80.5264 42.5866 80.5264C42.3789 80.5264 42.2127 80.4919 42.0878 80.423C41.963 80.3526 41.8669 80.2731 41.7995 80.1844C41.7322 80.0943 41.6803 80.0197 41.6438 79.9606H41.6017V81.6749H41.1051ZM41.5933 78.8375C41.5933 79.0824 41.6291 79.2984 41.7006 79.4856C41.7722 79.6714 41.8767 79.8171 42.0142 79.9226C42.1517 80.0268 42.32 80.0788 42.5192 80.0788C42.7268 80.0788 42.9001 80.024 43.039 79.9142C43.1793 79.803 43.2845 79.6538 43.3547 79.4666C43.4262 79.278 43.462 79.0683 43.462 78.8375C43.462 78.6094 43.4269 78.404 43.3568 78.221C43.288 78.0366 43.1835 77.8909 43.0432 77.784C42.9043 77.6756 42.7297 77.6214 42.5192 77.6214C42.3172 77.6214 42.1474 77.6728 42.01 77.7755C41.8725 77.8769 41.7687 78.019 41.6985 78.202C41.6284 78.3835 41.5933 78.5954 41.5933 78.8375Z" fill="#002D63"/>
<path d="M46.3785 80.5349C46.1737 80.5349 45.9878 80.4962 45.8208 80.4187C45.6539 80.3399 45.5213 80.2266 45.4231 80.0788C45.3249 79.9297 45.2758 79.7495 45.2758 79.5384C45.2758 79.3526 45.3123 79.202 45.3852 79.0866C45.4582 78.9698 45.5557 78.8783 45.6777 78.8121C45.7998 78.746 45.9345 78.6967 46.0818 78.6643C46.2305 78.6306 46.3799 78.6038 46.53 78.5841C46.7264 78.5588 46.8856 78.5398 47.0077 78.5271C47.1311 78.513 47.2209 78.4898 47.277 78.4574C47.3346 78.4251 47.3633 78.3688 47.3633 78.2885V78.2717C47.3633 78.0633 47.3065 77.9015 47.1929 77.7861C47.0806 77.6707 46.9102 77.613 46.6815 77.613C46.4444 77.613 46.2585 77.665 46.1238 77.7692C45.9892 77.8733 45.8945 77.9845 45.8398 78.1028L45.3684 77.9339C45.4526 77.7368 45.5648 77.5834 45.7051 77.4736C45.8468 77.3624 46.0011 77.285 46.168 77.2414C46.3364 77.1963 46.5019 77.1738 46.6647 77.1738C46.7685 77.1738 46.8877 77.1865 47.0224 77.2118C47.1585 77.2358 47.2897 77.2857 47.4159 77.3617C47.5436 77.4377 47.6495 77.5524 47.7337 77.7059C47.8179 77.8593 47.86 78.0648 47.86 78.3223V80.4589H47.3633V80.0197H47.3381C47.3044 80.0901 47.2483 80.1654 47.1697 80.2456C47.0912 80.3259 46.9866 80.3941 46.8562 80.4504C46.7257 80.5067 46.5665 80.5349 46.3785 80.5349ZM46.4542 80.0873C46.6506 80.0873 46.8162 80.0486 46.9509 79.9712C47.087 79.8938 47.1894 79.7938 47.2581 79.6714C47.3283 79.5489 47.3633 79.4201 47.3633 79.285V78.829C47.3423 78.8543 47.296 78.8776 47.2244 78.8987C47.1543 78.9184 47.0729 78.936 46.9803 78.9515C46.8891 78.9655 46.8001 78.9782 46.7131 78.9895C46.6275 78.9993 46.5581 79.0078 46.5047 79.0148C46.3757 79.0317 46.255 79.0591 46.1428 79.0971C46.032 79.1337 45.9422 79.1893 45.8734 79.2639C45.8061 79.3371 45.7724 79.437 45.7724 79.5637C45.7724 79.7368 45.8363 79.8677 45.9639 79.9564C46.093 80.0437 46.2564 80.0873 46.4542 80.0873Z" fill="#002D63"/>
<path d="M51.8765 76L52.129 76.304C52.0308 76.3997 51.9172 76.4666 51.7881 76.5046C51.6591 76.5426 51.5132 76.5658 51.3504 76.5742C51.1877 76.5827 51.0067 76.5911 50.8075 76.5996C50.583 76.608 50.3971 76.6629 50.2498 76.7643C50.1025 76.8656 49.9889 77.012 49.9089 77.2034C49.829 77.3948 49.7778 77.6298 49.7553 77.9085H49.7974C49.9068 77.7059 50.0583 77.5567 50.2519 77.461C50.4455 77.3652 50.6532 77.3174 50.8748 77.3174C51.1274 77.3174 51.3546 77.3765 51.5567 77.4947C51.7587 77.613 51.9186 77.7882 52.0365 78.0204C52.1543 78.2527 52.2132 78.5391 52.2132 78.8797C52.2132 79.2189 52.1529 79.5116 52.0322 79.7579C51.913 80.0042 51.7453 80.1943 51.5293 80.328C51.3147 80.4603 51.0628 80.5264 50.7738 80.5264C50.4848 80.5264 50.2316 80.4582 50.0141 80.3216C49.7967 80.1837 49.6276 79.9796 49.507 79.7094C49.3863 79.4377 49.326 79.1021 49.326 78.7023V78.3561C49.326 77.6341 49.4481 77.0866 49.6922 76.7136C49.9377 76.3406 50.3067 76.1478 50.7991 76.1351C50.973 76.1295 51.1281 76.1281 51.2641 76.1309C51.4002 76.1337 51.5188 76.1274 51.6198 76.1119C51.7208 76.0964 51.8064 76.0591 51.8765 76ZM50.7738 80.0788C50.9688 80.0788 51.1365 80.0296 51.2768 79.9311C51.4185 79.8325 51.5272 79.6939 51.603 79.5152C51.6787 79.335 51.7166 79.1232 51.7166 78.8797C51.7166 78.6432 51.678 78.442 51.6008 78.2759C51.5251 78.1098 51.4164 77.9831 51.2747 77.8959C51.133 77.8086 50.9632 77.765 50.7654 77.765C50.6209 77.765 50.4911 77.7896 50.3761 77.8389C50.2611 77.8881 50.1629 77.9606 50.0815 78.0563C50.0001 78.152 49.937 78.2688 49.8921 78.4068C49.8486 78.5447 49.8255 78.7023 49.8226 78.8797C49.8226 79.2428 49.9075 79.5335 50.0773 79.7516C50.247 79.9698 50.4792 80.0788 50.7738 80.0788Z" fill="#002D63"/>
<path d="M54.9971 80.5264C54.7053 80.5264 54.4493 80.4567 54.229 80.3174C54.0102 80.1781 53.839 79.9831 53.7156 79.7326C53.5935 79.4821 53.5325 79.1893 53.5325 78.8543C53.5325 78.5166 53.5935 78.2217 53.7156 77.9698C53.839 77.7178 54.0102 77.5222 54.229 77.3828C54.4493 77.2435 54.7053 77.1738 54.9971 77.1738C55.289 77.1738 55.5443 77.2435 55.7631 77.3828C55.9834 77.5222 56.1546 77.7178 56.2766 77.9698C56.4001 78.2217 56.4618 78.5166 56.4618 78.8543C56.4618 79.1893 56.4001 79.4821 56.2766 79.7326C56.1546 79.9831 55.9834 80.1781 55.7631 80.3174C55.5443 80.4567 55.289 80.5264 54.9971 80.5264ZM54.9971 80.0788C55.2188 80.0788 55.4012 80.0218 55.5443 79.9078C55.6874 79.7938 55.7933 79.6439 55.862 79.4582C55.9308 79.2724 55.9652 79.0711 55.9652 78.8543C55.9652 78.6376 55.9308 78.4356 55.862 78.2484C55.7933 78.0612 55.6874 77.9099 55.5443 77.7945C55.4012 77.6791 55.2188 77.6214 54.9971 77.6214C54.7755 77.6214 54.5931 77.6791 54.45 77.7945C54.3069 77.9099 54.201 78.0612 54.1322 78.2484C54.0635 78.4356 54.0291 78.6376 54.0291 78.8543C54.0291 79.0711 54.0635 79.2724 54.1322 79.4582C54.201 79.6439 54.3069 79.7938 54.45 79.9078C54.5931 80.0218 54.7755 80.0788 54.9971 80.0788Z" fill="#002D63"/>
<path d="M57.5086 77.6805V77.2161H60.1348V77.6805H59.0742V80.4589H58.5776V77.6805H57.5086Z" fill="#002D63"/>
<path d="M61.5704 80.4589V77.2161H62.067V78.6263H62.3953L63.5569 77.2161H64.1966L62.8919 78.7783L64.2135 80.4589H63.5737L62.5131 79.0908H62.067V80.4589H61.5704Z" fill="#002D63"/>
<path d="M65.961 79.7242L67.5182 77.2161H68.0906V80.4589H67.594V77.9508L66.0452 80.4589H65.4643V77.2161H65.961V79.7242Z" fill="#002D63"/>
</g>
<path id="Vector (Stroke)" fill-rule="evenodd" clip-rule="evenodd" d="M34.8823 0.256836L69.5 20.6747V61.4897L51.6898 51.9648L34.8747 61.4014L18.5249 51.9674L0.5 61.4733V20.6778L34.8823 0.256836ZM20.0677 49.3941L33.385 57.0783V41.0041L20.2569 33.3209L20.0677 49.3941ZM21.7571 30.7228L34.9007 38.4151L48.6075 30.7228L34.9007 23.0306L21.7571 30.7228ZM36.385 20.4235L51.6713 29.0021L64.996 21.5012L36.385 4.62607V20.4235ZM33.385 4.63541V20.4416L18.7628 28.9993L5.02662 21.4785L33.385 4.63541ZM3.5 24.0629L17.2769 31.6059L17.0681 49.3441L3.5 56.4996V24.0629ZM66.5 24.0972L53.1724 31.5998V49.3556L66.5 56.4832V24.0972ZM50.1724 49.3762V33.2847L36.385 41.0222V57.1137L50.1724 49.3762Z" fill="#002D63"/>
</g>
<defs>
<clipPath id="clip0_248_154">
<rect width="70" height="82" fill="white"/>
</clipPath>
</defs>
</svg>
